<svg version="1.1" id="Layer_1" xmlns="http://www.w3.org/2000/svg" xmlns:xlink="http://www.w3.org/1999/xlink" x="0px" y="0px"
	 width="100%" viewBox="0 0 2560 2560" enable-background="new 0 0 2560 2560" xml:space="preserve">
<path fill="#FFFFFF" opacity="1.000000" stroke="none" 
	d="
M1428.000000,2562.000000 
	C952.000000,2562.000000 477.000000,2562.000000 2.000000,2562.000000 
	C2.000000,1708.666626 2.000000,855.333313 2.000000,2.000000 
	C855.333313,2.000000 1708.666626,2.000000 2562.000000,2.000000 
	C2562.000000,855.333313 2562.000000,1708.666626 2562.000000,2562.000000 
	C2184.333252,2562.000000 1806.666626,2562.000000 1428.000000,2562.000000 
M2096.207764,1121.865356 
	C2096.170898,1204.604858 2096.130615,1287.344360 2096.117188,1370.083862 
	C2096.116699,1372.063843 2096.410400,1374.043945 2096.208008,1377.863647 
	C2096.137695,1412.348999 2096.067383,1446.834229 2095.996094,1481.904297 
	C2090.579834,1481.904297 2086.619629,1481.904297 2082.659668,1481.904297 
	C1862.079224,1481.904297 1641.498779,1481.898071 1420.918335,1481.922729 
	C1409.938110,1481.923950 1398.206787,1479.825806 1388.188843,1483.003784 
	C1378.172363,1486.181641 1369.787842,1494.645752 1360.833984,1500.998535 
	C1346.467651,1511.191406 1332.221680,1521.553955 1316.592285,1532.182617 
	C1295.628418,1546.783691 1274.664429,1561.384766 1253.795288,1575.919800 
	C1249.720581,1573.107422 1246.444336,1570.836182 1243.158203,1568.579712 
	C1226.174194,1556.918213 1209.187378,1545.260742 1191.512329,1532.465088 
	C1171.342529,1518.280884 1150.918701,1504.438965 1131.127319,1489.745117 
	C1123.163208,1483.832275 1115.184937,1481.721069 1105.381958,1481.730835 
	C878.731018,1481.955566 652.079834,1481.904297 425.428680,1481.904297 
	C421.199738,1481.904297 416.970825,1481.904297 411.708862,1481.904297 
	C411.708862,1477.137451 411.735291,1473.557739 411.704376,1469.978394 
	C411.549042,1451.994141 411.378754,1434.010010 411.626526,1414.188477 
	C411.647888,1346.438721 411.672668,1278.688843 411.670380,1210.939087 
	C411.670319,1209.292969 411.369110,1207.646973 411.622681,1204.170288 
	C411.643738,1116.445068 411.667206,1028.719971 411.667480,940.994751 
	C411.667480,939.345215 411.393097,937.695679 411.675934,934.212341 
	C411.675934,881.012878 411.675934,827.813416 411.675934,773.518677 
	C440.069794,773.518677 467.286591,773.619934 494.502289,773.490295 
	C521.990540,773.359314 549.498718,774.067017 577.022705,773.044983 
	C577.022705,755.704468 577.022705,739.519043 577.022705,722.851074 
	C505.384857,722.851074 434.323792,722.851074 362.752411,722.851074 
	C362.575409,726.364563 362.300446,729.293152 362.299103,732.221863 
	C362.268555,797.513062 362.262146,862.804321 362.283813,928.095520 
	C362.284698,930.744690 362.604645,933.393799 362.435120,937.882935 
	C362.399048,1025.276123 362.359711,1112.669189 362.347260,1200.062378 
	C362.346985,1202.041504 362.651428,1204.020752 362.437042,1207.839844 
	C362.399750,1275.257568 362.358246,1342.675293 362.345612,1410.093018 
	C362.345215,1412.071167 362.648438,1414.049316 362.432434,1417.861328 
	C362.432434,1455.747681 362.432434,1493.634033 362.432434,1532.512817 
	C367.726593,1532.512817 371.978973,1532.512817 376.231354,1532.512939 
	C612.806030,1532.515137 849.380737,1532.551880 1085.955322,1532.408447 
	C1096.776001,1532.401855 1107.177002,1532.431152 1116.539307,1541.229004 
	C1162.167114,1573.324829 1207.794922,1605.420776 1253.487793,1637.562500 
	C1256.318237,1635.701782 1258.553345,1634.314209 1260.704102,1632.806030 
	C1294.799561,1608.899536 1328.913208,1585.018921 1362.953857,1561.034790 
	C1373.544678,1553.572754 1383.932129,1545.822144 1395.807007,1537.854858 
	C1401.105591,1533.039551 1407.426392,1532.422119 1414.327271,1532.425415 
	C1653.409302,1532.537109 1892.491455,1532.517578 2131.573486,1532.516724 
	C2135.829590,1532.516724 2140.085449,1532.516724 2144.961182,1532.516724 
	C2145.182861,1528.665039 2145.494873,1525.754761 2145.496338,1522.844238 
	C2145.520020,1476.559570 2145.512695,1430.274902 2145.473389,1383.990234 
	C2145.471191,1381.344116 2145.132812,1378.698364 2145.415527,1374.222778 
	C2145.442139,1291.143433 2145.472168,1208.064087 2145.473389,1124.984741 
	C2145.473389,1123.340942 2145.136719,1121.697021 2145.417969,1118.222412 
	C2145.447998,1039.141479 2145.480957,960.060486 2145.488037,880.979492 
	C2145.488281,879.332275 2145.185303,877.685120 2145.480469,874.213684 
	C2145.517822,825.890198 2145.569092,777.566711 2145.548340,729.243225 
	C2145.547607,727.049011 2144.895752,724.855042 2144.572510,722.819580 
	C2120.649414,720.695007 1937.627686,721.708130 1930.688477,723.906067 
	C1930.688477,740.139160 1930.688477,756.329224 1930.688477,773.531433 
	C1958.554443,773.531433 1985.802612,773.426331 2013.049805,773.560852 
	C2040.525879,773.696472 2068.023438,772.965820 2096.047852,774.029907 
	C2096.047852,781.831604 2096.017334,788.463257 2096.052979,795.094543 
	C2096.198975,822.075623 2096.365234,849.056580 2096.196045,877.881042 
	C2096.162842,956.616150 2096.126465,1035.351318 2096.116455,1114.086426 
	C2096.116211,1116.066162 2096.408447,1118.046021 2096.207764,1121.865356 
M1289.847656,1027.851196 
	C1289.658936,1078.584229 1289.470215,1129.317139 1288.599976,1181.673706 
	C1287.433838,1194.595093 1284.165894,1206.981445 1280.232300,1219.350220 
	C1272.198120,1244.613281 1255.723877,1260.942261 1230.342407,1267.819214 
	C1205.131714,1274.649658 1179.592041,1274.626831 1154.273071,1268.342896 
	C1126.361816,1261.415405 1108.266846,1243.541138 1100.375122,1216.114136 
	C1096.996094,1204.370728 1095.145874,1192.052002 1093.914429,1179.861816 
	C1092.512695,1165.985229 1092.577637,1151.960449 1092.395020,1136.159180 
	C1092.405151,1067.897583 1092.492065,999.635864 1092.312866,931.374817 
	C1092.293823,924.125061 1091.499512,916.679688 1089.713013,909.669556 
	C1084.478516,889.129333 1068.963257,877.705872 1047.192993,877.474731 
	C1025.251953,877.241699 1009.443115,888.077148 1004.121338,908.734497 
	C1001.581970,918.591919 1000.731140,929.115662 1000.680664,939.345276 
	C1000.373901,1001.612122 1000.507324,1063.881226 1000.539307,1126.149536 
	C1000.541016,1129.453491 1000.955688,1132.757324 1000.684998,1137.832397 
	C1001.159973,1151.249023 1001.634888,1164.665527 1001.663696,1178.772461 
	C1001.875061,1179.800903 1002.086426,1180.829468 1002.108093,1183.603149 
	C1004.115967,1197.405396 1005.322327,1211.381470 1008.270447,1224.979858 
	C1021.020996,1283.791870 1056.158691,1321.463501 1114.935181,1336.491577 
	C1150.120728,1345.488159 1185.876953,1347.374512 1221.899780,1345.132690 
	C1240.842041,1343.953979 1259.441040,1340.460571 1277.584473,1334.459595 
	C1308.567261,1324.212402 1332.500122,1304.840332 1351.448242,1278.781128 
	C1358.228760,1269.455933 1364.005127,1259.662598 1367.278442,1248.382690 
	C1370.194946,1238.332642 1371.835693,1227.901367 1374.873169,1218.077026 
	C1378.785278,1205.423828 1379.684448,1192.872559 1380.517822,1178.397583 
	C1380.871826,1172.103149 1381.513306,1165.809570 1381.533081,1159.514160 
	C1381.660767,1118.992188 1381.666138,1078.469727 1381.667236,1037.947510 
	C1381.667358,1033.975708 1381.367310,1030.003784 1381.618042,1024.193970 
	C1381.629761,993.570557 1381.784058,962.945984 1381.544556,932.324524 
	C1381.490356,925.392273 1380.738281,918.312805 1379.151489,911.573303 
	C1373.989136,889.645813 1357.673706,877.215576 1335.006226,877.252747 
	C1312.282471,877.289978 1296.882202,889.768127 1291.775635,912.371948 
	C1291.044556,915.608093 1290.182983,918.919678 1290.175049,922.198242 
	C1290.092285,956.800781 1290.170654,991.403748 1289.847656,1027.851196 
M2022.783691,2018.714966 
	C2027.929810,2000.156372 2030.724487,1981.246704 2031.646729,1960.169067 
	C2031.710571,1956.517090 2031.906128,1952.862061 2031.817261,1949.213745 
	C2031.208862,1924.276611 2028.840820,1899.602417 2020.503784,1874.250488 
	C2019.665649,1871.381592 2018.940552,1868.473999 2017.972534,1865.649658 
	C2005.970215,1830.632324 1988.500488,1798.806763 1962.385010,1770.426758 
	C1908.482910,1712.550415 1842.159058,1682.026489 1762.911133,1681.961182 
	C1443.257812,1681.697876 1123.604248,1681.887939 803.950684,1681.812866 
	C760.096680,1681.802490 718.824097,1691.955933 680.029053,1712.168945 
	C652.644409,1726.436890 627.926453,1744.296875 606.443176,1768.400879 
	C572.590881,1805.544800 550.170227,1848.485474 540.141785,1899.595703 
	C534.992981,1924.092773 534.790283,1948.877808 536.287720,1973.695068 
	C536.740051,1981.191162 538.624451,1988.600952 539.689453,1997.726196 
	C542.645447,2017.898071 548.189209,2037.351074 556.624268,2055.892578 
	C560.501709,2064.415771 565.261353,2072.537598 569.758728,2082.211670 
	C588.097351,2115.856445 612.950500,2143.760254 644.488464,2167.513428 
	C645.906799,2168.359131 647.396545,2169.105713 648.732788,2170.065674 
	C667.609863,2183.626953 688.105774,2194.009766 709.780884,2202.390381 
	C742.116394,2214.892822 775.680420,2219.447021 810.079956,2219.446777 
	C964.736267,2219.445557 1119.392578,2219.447021 1274.048828,2219.447266 
	C1434.704712,2219.447266 1595.360962,2219.570557 1756.016235,2219.273438 
	C1773.932983,2219.240234 1792.060059,2218.118164 1809.711670,2215.208740 
	C1839.886108,2210.234863 1868.075073,2198.701416 1894.750244,2183.924561 
	C1904.507202,2178.519531 1913.116699,2171.043701 1923.704956,2164.490479 
	C1933.213501,2156.737793 1943.648071,2149.860107 1952.003174,2141.017334 
	C1963.211060,2129.155518 1973.211670,2116.071045 1982.948486,2102.931885 
	C1988.677246,2095.201416 1992.890869,2086.348145 1998.504150,2076.745117 
	C2002.532959,2069.389404 2007.329346,2062.339600 2010.408569,2054.605713 
	C2014.898438,2043.328369 2018.153564,2031.559326 2022.783691,2018.714966 
M1575.847168,1126.172607 
	C1575.865356,1060.603760 1575.931885,995.034912 1575.815430,929.466370 
	C1575.805420,923.862000 1574.992676,918.173096 1573.842773,912.671875 
	C1569.247559,890.687622 1553.130981,877.715088 1530.567017,877.478699 
	C1507.934692,877.241638 1491.330811,889.732971 1486.520142,911.594116 
	C1484.751465,919.631470 1484.202637,928.074707 1484.176147,936.336182 
	C1483.981445,996.912292 1484.053223,1057.489380 1484.073486,1118.066040 
	C1484.074585,1121.380737 1484.367065,1124.695435 1484.166138,1129.853149 
	C1484.139282,1183.755005 1484.043701,1237.657104 1484.178833,1291.558594 
	C1484.194458,1297.827515 1484.977661,1304.201538 1486.281372,1310.340820 
	C1490.903076,1332.104370 1507.803955,1345.825806 1529.501343,1345.905884 
	C1552.186279,1345.989624 1569.104248,1332.671509 1573.755371,1310.453857 
	C1575.174194,1303.676392 1575.807373,1296.616943 1575.829712,1289.683594 
	C1575.993164,1238.776367 1575.917358,1187.868408 1575.885620,1136.960693 
	C1575.883667,1133.977905 1575.610229,1130.995483 1575.847168,1126.172607 
M1675.938477,1220.920410 
	C1667.217896,1230.981323 1658.206055,1240.807739 1649.862427,1251.171997 
	C1642.233154,1260.648682 1634.212646,1269.986938 1632.786255,1283.020874 
	C1630.274048,1305.975830 1641.120117,1327.479492 1664.294800,1333.976562 
	C1673.746460,1336.626343 1683.888428,1337.876099 1693.724854,1337.921875 
	C1763.645508,1338.247192 1833.568481,1338.096558 1903.490723,1338.095947 
	C1931.459595,1338.095703 1959.434448,1338.404541 1987.393677,1337.886108 
	C1995.200562,1337.741455 2003.408203,1336.281982 2010.646729,1333.431641 
	C2023.615845,1328.324707 2029.693481,1315.802734 2028.747314,1299.846680 
	C2027.904907,1285.640015 2020.867798,1275.858032 2007.094238,1272.085693 
	C1999.837891,1270.098267 1992.012939,1269.476685 1984.441895,1269.458252 
	C1909.192627,1269.274902 1833.942749,1269.346558 1758.693115,1269.346191 
	C1755.269653,1269.346069 1751.846313,1269.346069 1746.341919,1269.346069 
	C1749.705322,1264.983521 1751.556763,1262.360229 1753.632202,1259.928223 
	C1763.075195,1248.863159 1772.581543,1237.852173 1783.124146,1226.295776 
	C1784.872192,1224.297241 1786.665405,1222.336060 1788.361694,1220.294556 
	C1828.180664,1172.374878 1867.973755,1124.433716 1907.815918,1076.533325 
	C1913.918457,1069.196411 1920.238647,1062.040649 1927.632080,1054.125610 
	C1948.478760,1029.015137 1969.140625,1003.748047 1990.237793,978.849670 
	C2004.144043,962.437805 2007.923462,943.503662 2005.999268,922.822266 
	C2004.280273,904.347229 1994.003418,891.873474 1976.000854,887.342102 
	C1969.609619,885.733398 1962.852417,884.884949 1956.260010,884.872742 
	C1870.652222,884.714111 1785.043579,884.672180 1699.436157,884.937805 
	C1691.930298,884.961121 1684.060669,886.324341 1677.008667,888.865295 
	C1663.258057,893.820129 1655.611938,907.220459 1656.514648,922.180908 
	C1657.368286,936.328857 1665.815552,947.587158 1679.784180,951.349487 
	C1686.745483,953.224487 1694.222046,953.869690 1701.469360,953.892273 
	C1762.760254,954.082947 1824.051880,954.001526 1885.343384,954.001770 
	C1888.823975,954.001770 1892.304565,954.001709 1897.488647,954.001709 
	C1894.713013,957.843018 1893.338501,959.996521 1891.718994,961.946594 
	C1878.951538,977.320496 1866.077515,992.606445 1853.354980,1008.017456 
	C1841.922729,1021.865479 1830.640869,1035.837891 1818.184814,1050.407959 
	C1784.653931,1090.514282 1751.081787,1130.586304 1717.612183,1170.743774 
	C1703.984131,1187.094849 1690.578979,1203.631836 1675.938477,1220.920410 
M909.355713,1020.549194 
	C887.691711,951.889099 842.695618,906.829285 773.372070,886.685608 
	C738.694580,876.609314 703.116943,875.543518 667.489868,878.771973 
	C635.348511,881.684509 604.849487,890.807922 577.065369,907.749451 
	C543.745483,928.066406 518.731934,955.745605 502.281830,992.705688 
	C500.111145,997.900269 497.800293,1003.041382 495.792877,1008.298279 
	C484.066071,1039.007446 479.023132,1071.024414 478.642120,1103.690308 
	C478.461731,1119.155518 480.456116,1134.645996 481.343475,1151.898804 
	C482.868927,1173.837524 488.536133,1194.808838 496.410553,1215.219604 
	C517.814636,1270.699341 555.266602,1310.400269 611.524902,1331.240845 
	C648.420410,1344.908691 686.746155,1347.916382 725.655273,1345.063843 
	C753.391846,1343.030273 780.408752,1337.545776 805.626587,1325.311035 
	C810.294373,1323.046387 813.014893,1325.109985 816.417786,1327.326172 
	C837.052612,1340.764648 857.469788,1354.574585 878.573486,1367.237549 
	C887.282166,1372.463135 897.251038,1376.131958 907.111938,1378.770752 
	C923.187378,1383.072632 938.045410,1374.898438 944.536255,1359.680176 
	C950.133423,1346.557129 945.686646,1332.387207 932.225281,1323.224243 
	C923.164856,1317.056763 913.452881,1311.844238 904.011719,1306.239380 
	C890.681763,1298.325562 877.332703,1290.443970 863.788757,1282.428589 
	C864.810486,1280.145630 865.108887,1278.803345 865.883850,1277.847534 
	C881.054688,1259.133179 895.617249,1240.137939 902.987061,1216.609375 
	C906.797913,1204.442627 913.153503,1193.075195 915.286621,1178.888062 
	C921.483765,1150.066284 923.166382,1120.868042 921.522827,1091.539062 
	C920.200684,1067.944824 917.283508,1044.506348 909.355713,1020.549194 
M758.553772,334.300659 
	C743.971558,332.926056 729.386841,331.576813 714.807556,330.171631 
	C681.669678,326.977722 648.514832,323.943726 615.404907,320.481140 
	C592.864929,318.123962 572.165405,321.559021 555.080017,337.718201 
	C538.727966,353.183777 532.118530,372.518616 533.790833,394.651581 
	C534.943909,409.912872 536.785217,425.126495 538.513489,440.339294 
	C545.051025,497.882935 551.600952,555.425354 558.283325,612.952271 
	C561.642273,641.868958 575.671082,663.519653 602.326660,676.356262 
	C612.801392,681.400635 623.900818,682.666016 635.369446,682.651611 
	C703.680481,682.566040 771.991943,682.695312 840.302429,682.479675 
	C847.170654,682.458008 852.183716,684.416565 856.962158,689.325134 
	C866.252502,698.868408 876.104797,707.866699 885.792480,717.018738 
	C887.267883,718.412598 889.107727,719.420654 891.430603,721.069824 
	C890.426208,707.814880 889.510254,695.726807 888.513489,682.572632 
	C897.402344,682.572632 905.008484,682.587219 912.614441,682.569336 
	C926.244507,682.537354 937.998901,677.478027 948.140137,668.700317 
	C959.873596,658.544678 967.776123,645.726135 969.934143,630.395996 
	C973.133545,607.668518 975.327698,584.793274 977.661560,561.951477 
	C982.094055,518.569946 986.436523,475.178253 990.517822,431.762665 
	C991.163818,424.891144 990.915283,417.777771 989.941162,410.938446 
	C985.187683,377.564423 958.871582,353.045166 925.382385,350.323090 
	C921.065430,349.972198 916.732788,349.797241 912.422607,349.382965 
	C879.618408,346.229919 846.815308,343.064240 814.017334,339.846954 
	C796.133423,338.092651 778.260010,336.230286 758.553772,334.300659 
M1711.000488,648.304382 
	C1770.301270,648.302673 1829.603394,648.050049 1888.902222,648.390320 
	C1926.380249,648.605408 1957.424072,619.134827 1962.160767,584.587036 
	C1963.426636,575.353516 1964.564209,566.100464 1965.625366,556.840942 
	C1972.938843,493.023712 1980.115234,429.190552 1987.538696,365.386139 
	C1993.116699,317.444336 1957.442749,280.765625 1912.250000,285.776917 
	C1904.641357,286.620605 1897.003662,287.202850 1889.380493,287.916229 
	C1857.892822,290.862762 1826.401123,293.766357 1794.919312,296.774292 
	C1755.818237,300.510223 1716.727783,304.356659 1677.628540,308.111908 
	C1648.470337,310.912384 1619.287354,313.467926 1590.151123,316.478333 
	C1575.005249,318.043304 1562.116577,324.848907 1551.717163,335.900940 
	C1535.251465,353.400238 1528.214478,374.421997 1530.559814,398.212097 
	C1536.307129,456.508026 1542.390381,514.770996 1548.434082,573.037354 
	C1549.325562,581.631531 1550.149414,590.302368 1552.018066,598.712585 
	C1558.030029,625.770935 1581.816406,650.090881 1614.611084,648.334839 
	C1618.895020,648.105469 1623.201904,648.303345 1628.529907,648.303345 
	C1630.059692,664.460754 1631.534180,680.033936 1633.194824,697.572815 
	C1636.113037,694.032715 1637.637573,692.347839 1638.979736,690.528625 
	C1647.680664,678.735535 1656.558472,667.063232 1664.910522,655.026855 
	C1668.290894,650.155396 1671.968872,647.906738 1678.024292,648.178223 
	C1688.331055,648.640259 1698.673706,648.304932 1711.000488,648.304382 
M1142.072021,281.071350 
	C1100.860840,315.854706 1077.073853,360.123932 1072.630005,413.776184 
	C1064.647095,510.154358 1126.868774,591.715027 1212.950562,615.796875 
	C1216.430176,616.770325 1219.900513,617.776550 1223.464233,618.792908 
	C1228.573364,636.897644 1233.578369,654.633789 1239.230103,674.661743 
	C1248.249146,655.925476 1256.275146,639.252014 1263.866943,623.480408 
	C1276.641846,622.116638 1288.432007,621.902954 1299.749146,619.479919 
	C1372.348267,603.936401 1423.161499,561.634338 1446.643921,491.197540 
	C1470.213257,420.500092 1456.153198,355.168121 1406.129150,299.613495 
	C1337.444458,223.334991 1221.283325,216.580490 1142.072021,281.071350 
z"/>
<path fill="#8CC640" opacity="1.000000" stroke="none" 
	d="
M759.467834,334.358673 
	C778.260010,336.230286 796.133423,338.092651 814.017334,339.846954 
	C846.815308,343.064240 879.618408,346.229919 912.422607,349.382965 
	C916.732788,349.797241 921.065430,349.972198 925.382385,350.323090 
	C958.871582,353.045166 985.187683,377.564423 989.941162,410.938446 
	C990.915283,417.777771 991.163818,424.891144 990.517822,431.762665 
	C986.436523,475.178253 982.094055,518.569946 977.661560,561.951477 
	C975.327698,584.793274 973.133545,607.668518 969.934143,630.395996 
	C967.776123,645.726135 959.873596,658.544678 948.140137,668.700317 
	C937.998901,677.478027 926.244507,682.537354 912.614441,682.569336 
	C905.008484,682.587219 897.402344,682.572632 888.513489,682.572632 
	C889.510254,695.726807 890.426208,707.814880 891.430603,721.069824 
	C889.107727,719.420654 887.267883,718.412598 885.792480,717.018738 
	C876.104797,707.866699 866.252502,698.868408 856.962158,689.325134 
	C852.183716,684.416565 847.170654,682.458008 840.302429,682.479675 
	C771.991943,682.695312 703.680481,682.566040 635.369446,682.651611 
	C623.900818,682.666016 612.801392,681.400635 602.326660,676.356262 
	C575.671082,663.519653 561.642273,641.868958 558.283325,612.952271 
	C551.600952,555.425354 545.051025,497.882935 538.513489,440.339294 
	C536.785217,425.126495 534.943909,409.912872 533.790833,394.651581 
	C532.118530,372.518616 538.727966,353.183777 555.080017,337.718201 
	C572.165405,321.559021 592.864929,318.123962 615.404907,320.481140 
	C648.514832,323.943726 681.669678,326.977722 714.807556,330.171631 
	C729.386841,331.576813 743.971558,332.926056 759.467834,334.358673 
M779.105957,508.218262 
	C779.981873,482.914062 781.282776,457.613525 781.502563,432.303619 
	C781.579285,423.470001 779.362854,414.532532 777.473877,405.798126 
	C776.390259,400.787903 772.881714,397.047363 767.824646,395.050201 
	C753.406555,389.356018 737.560425,398.664581 735.866821,414.095276 
	C735.397583,418.371216 735.416931,422.783142 735.864807,427.064392 
	C739.328735,460.176025 742.809875,493.287567 746.661133,526.355408 
	C747.343811,532.217163 749.207397,538.118286 751.542480,543.565369 
	C754.379272,550.182983 760.678955,552.325378 767.385376,550.073975 
	C772.349976,548.407227 775.167969,544.591736 775.834351,539.803223 
	C777.206848,529.940552 777.939514,519.988892 779.105957,508.218262 
M754.403564,619.190613 
	C758.867737,620.189880 763.327759,622.006470 767.796814,622.028931 
	C779.356567,622.087036 788.000061,614.022400 789.475220,602.750183 
	C790.880310,592.012695 783.971619,581.342896 773.520691,578.110291 
	C763.164795,574.907166 752.257874,579.180969 746.734558,588.165283 
	C741.935120,595.972168 742.550049,612.402649 754.403564,619.190613 
z"/>
<path fill="#F7941F" opacity="1.000000" stroke="none" 
	d="
M1710.000854,648.304443 
	C1698.673706,648.304932 1688.331055,648.640259 1678.024292,648.178223 
	C1671.968872,647.906738 1668.290894,650.155396 1664.910522,655.026855 
	C1656.558472,667.063232 1647.680664,678.735535 1638.979736,690.528625 
	C1637.637573,692.347839 1636.113037,694.032715 1633.194824,697.572815 
	C1631.534180,680.033936 1630.059692,664.460754 1628.529907,648.303345 
	C1623.201904,648.303345 1618.895020,648.105469 1614.611084,648.334839 
	C1581.816406,650.090881 1558.030029,625.770935 1552.018066,598.712585 
	C1550.149414,590.302368 1549.325562,581.631531 1548.434082,573.037354 
	C1542.390381,514.770996 1536.307129,456.508026 1530.559814,398.212097 
	C1528.214478,374.421997 1535.251465,353.400238 1551.717163,335.900940 
	C1562.116577,324.848907 1575.005249,318.043304 1590.151123,316.478333 
	C1619.287354,313.467926 1648.470337,310.912384 1677.628540,308.111908 
	C1716.727783,304.356659 1755.818237,300.510223 1794.919312,296.774292 
	C1826.401123,293.766357 1857.892822,290.862762 1889.380493,287.916229 
	C1897.003662,287.202850 1904.641357,286.620605 1912.250000,285.776917 
	C1957.442749,280.765625 1993.116699,317.444336 1987.538696,365.386139 
	C1980.115234,429.190552 1972.938843,493.023712 1965.625366,556.840942 
	C1964.564209,566.100464 1963.426636,575.353516 1962.160767,584.587036 
	C1957.424072,619.134827 1926.380249,648.605408 1888.902222,648.390320 
	C1829.603394,648.050049 1770.301270,648.302673 1710.000854,648.304443 
M1734.264282,366.976044 
	C1728.504517,370.278992 1722.328735,373.030243 1717.069092,376.996368 
	C1705.015015,386.086090 1696.587280,397.874359 1693.815918,413.025848 
	C1691.755981,424.287231 1697.008545,433.528320 1706.894287,436.859680 
	C1716.644897,440.145569 1725.332031,436.278564 1730.842407,426.040863 
	C1733.363037,421.357697 1735.379883,416.389679 1738.077759,411.817902 
	C1747.885010,395.197479 1759.700317,390.029663 1778.446167,394.223541 
	C1789.669312,396.734406 1797.785400,403.355377 1801.158447,414.467133 
	C1804.485229,425.426453 1800.888794,434.855164 1792.514282,442.362061 
	C1788.313599,446.127502 1783.669312,449.397705 1779.228394,452.895386 
	C1771.128662,459.274811 1762.650024,465.235809 1755.021851,472.136749 
	C1743.590454,482.478424 1738.057617,495.849548 1738.069946,511.253815 
	C1738.079590,523.280945 1746.930054,531.016724 1758.888672,530.029785 
	C1767.416138,529.325989 1772.232544,524.100037 1774.035889,516.368103 
	C1777.360474,502.113342 1786.343018,492.489410 1797.931885,484.463654 
	C1806.131714,478.785126 1814.037354,472.650696 1821.801270,466.381775 
	C1831.283569,458.725555 1838.885010,449.594238 1842.082275,437.465027 
	C1848.613403,412.688324 1838.083618,387.354187 1814.487183,373.606293 
	C1789.528442,359.064514 1763.044922,356.874390 1734.264282,366.976044 
M1775.010986,571.553833 
	C1775.231201,569.254944 1775.770874,566.934692 1775.618408,564.660767 
	C1774.779541,552.149658 1765.166748,543.567017 1752.374878,543.721436 
	C1740.187134,543.868713 1730.903320,552.564819 1730.060547,564.623474 
	C1729.170166,577.361511 1737.236206,587.018738 1750.060425,588.568909 
	C1761.663452,589.971436 1769.732300,584.860352 1775.010986,571.553833 
z"/>
<path fill="#17BD57" opacity="1.000000" stroke="none" 
	d="
M540.722351,1898.004639 
	C550.170227,1848.485474 572.590881,1805.544800 607.931396,1768.177490 
	C620.656006,1768.636108 631.892334,1769.911743 643.128845,1769.914429 
	C1074.511353,1770.015503 1505.893921,1769.990234 1937.276489,1770.070312 
	C1945.848877,1770.071899 1954.420898,1771.125366 1962.993164,1771.688110 
	C1988.500488,1798.806763 2005.970215,1830.632324 2017.972534,1865.649658 
	C2018.940552,1868.473999 2019.665649,1871.381592 2019.553223,1875.092041 
	C1925.821045,1875.958496 1833.039551,1875.983398 1740.253296,1875.269897 
	C1743.996826,1863.519653 1747.849365,1852.541626 1751.444336,1841.480103 
	C1752.980591,1836.752930 1754.413452,1831.914062 1755.123779,1827.014404 
	C1756.245117,1819.278320 1751.938965,1811.098267 1746.118164,1808.427979 
	C1739.616821,1805.445435 1733.227417,1807.110229 1726.717651,1808.482178 
	C1721.445190,1809.593384 1720.528809,1814.300171 1718.833618,1817.896973 
	C1715.572266,1824.816406 1712.849731,1832.051514 1710.585693,1839.366699 
	C1705.012085,1857.375488 1699.853638,1875.512329 1694.451904,1893.574951 
	C1693.623657,1896.344727 1692.391602,1898.993896 1691.076538,1902.396729 
	C1689.572144,1900.593506 1688.642822,1899.949097 1688.383545,1899.100098 
	C1682.824951,1880.886597 1677.487305,1862.604248 1671.783081,1844.437012 
	C1668.826904,1835.022095 1665.686401,1825.616821 1661.838379,1816.542603 
	C1656.944092,1805.001343 1642.540283,1804.193970 1631.683350,1809.812378 
	C1629.350708,1811.019653 1627.072144,1814.100586 1626.529663,1816.687744 
	C1624.328491,1827.186035 1625.616089,1837.586670 1629.111938,1847.699585 
	C1635.371338,1865.807251 1641.668335,1883.901855 1647.015869,1902.001465 
	C1632.792725,1902.002563 1619.503296,1902.004028 1606.145874,1901.069824 
	C1606.379395,1883.231445 1607.487305,1866.438843 1604.290283,1849.497803 
	C1600.259033,1828.135864 1584.696167,1813.042847 1562.646973,1810.245361 
	C1540.592529,1807.447144 1518.243042,1806.620605 1496.032104,1810.062134 
	C1487.440186,1811.393311 1482.556641,1817.226685 1482.538574,1826.153076 
	C1482.478882,1855.458984 1482.453735,1884.764893 1482.346680,1914.070557 
	C1482.317505,1922.048950 1482.047119,1930.026367 1480.972168,1938.003540 
	C1471.719238,1938.000488 1463.381836,1937.998047 1454.816895,1937.086182 
	C1454.557617,1918.216553 1454.802246,1900.250000 1454.384521,1882.299072 
	C1454.154419,1872.409302 1453.385986,1862.455444 1451.853882,1852.688354 
	C1448.308228,1830.085327 1435.655151,1814.885864 1413.484985,1808.173218 
	C1399.910522,1804.063354 1386.012207,1803.605347 1372.276001,1806.562500 
	C1358.680786,1809.489380 1346.038452,1814.870239 1338.170654,1827.337891 
	C1332.443604,1836.413208 1329.209595,1846.534058 1328.064819,1857.184326 
	C1327.179565,1865.422119 1326.885498,1873.723267 1325.366699,1881.997803 
	C1305.667114,1882.000244 1286.929199,1882.001465 1267.997559,1881.083496 
	C1267.872070,1869.031128 1267.308105,1857.864136 1268.151855,1846.183105 
	C1278.845459,1846.183105 1288.127197,1846.129028 1297.407837,1846.203125 
	C1303.246582,1846.249756 1307.538696,1843.723999 1310.794556,1838.977051 
	C1316.614502,1830.492310 1314.194458,1810.668823 1298.735107,1809.773682 
	C1294.459717,1809.526001 1290.212036,1808.436768 1285.947998,1808.415283 
	C1259.994141,1808.283813 1234.038452,1808.236816 1208.085327,1808.434082 
	C1202.160889,1808.479126 1196.205322,1809.347778 1190.335205,1810.283569 
	C1183.995483,1811.294678 1180.692505,1814.940186 1180.303955,1821.444336 
	C1179.951538,1827.342041 1180.229370,1833.277466 1180.229370,1837.352905 
	C1186.978149,1845.867798 1194.670898,1846.662109 1202.944702,1846.268799 
	C1210.148804,1845.926514 1217.382202,1846.197632 1225.305054,1846.197632 
	C1225.305054,1860.946655 1225.305054,1874.472290 1224.413330,1888.000000 
	C1212.522095,1888.001587 1201.517334,1887.785034 1190.524292,1888.054810 
	C1176.936279,1888.388306 1163.360229,1889.222900 1149.771973,1889.524170 
	C1148.540771,1889.551636 1147.258301,1887.270752 1146.768677,1885.898560 
	C1161.641846,1885.562012 1169.213379,1877.270630 1167.851196,1862.265259 
	C1167.404419,1857.344727 1166.970215,1852.336670 1165.694702,1847.593384 
	C1160.888184,1829.718262 1151.306641,1816.111084 1132.862427,1809.566895 
	C1117.334351,1804.057251 1101.976318,1804.001343 1086.112793,1807.231445 
	C1074.424316,1809.611328 1064.406982,1814.653320 1057.505127,1824.328491 
	C1051.876709,1832.218262 1046.164917,1840.301514 1046.136230,1850.865845 
	C1046.124756,1855.107300 1044.770752,1859.344849 1043.462891,1863.830200 
	C1042.958862,1866.658936 1043.019775,1869.241821 1043.609497,1872.500488 
	C1045.288574,1890.997192 1049.874023,1907.684692 1060.704590,1922.204956 
	C1064.645630,1927.488647 1068.948364,1932.502563 1072.072998,1937.739502 
	C1054.154541,1937.895752 1037.249268,1937.952148 1020.157349,1937.087158 
	C1019.949097,1929.528198 1019.911072,1922.890747 1019.908813,1916.253174 
	C1019.898865,1886.714600 1019.864746,1857.175903 1019.916626,1827.637329 
	C1019.932312,1818.706543 1015.619385,1812.035400 1008.009827,1808.522949 
	C999.822144,1804.743530 991.240784,1804.718872 984.153259,1811.941162 
	C982.785645,1813.334839 981.277893,1814.590698 979.272827,1816.050781 
	C978.556824,1816.891235 978.402893,1817.590820 978.353699,1819.206421 
	C978.292786,1838.440552 978.110535,1856.758667 977.965881,1875.077026 
	C977.800293,1896.054443 977.668152,1917.032104 976.621521,1938.009277 
	C966.104919,1938.007080 956.488342,1938.005127 946.669739,1937.086914 
	C946.443604,1902.566040 946.421021,1868.961426 946.392334,1835.356934 
	C946.389771,1832.362671 946.504028,1829.357422 946.293701,1826.376221 
	C945.505493,1815.201538 937.937805,1807.598999 926.679260,1806.523560 
	C915.724487,1805.477051 908.130066,1810.986450 905.471619,1822.346802 
	C904.650269,1825.857056 904.504333,1829.585449 904.492676,1833.215332 
	C904.414551,1857.503784 904.472778,1881.792725 904.439453,1906.081421 
	C904.434998,1909.318848 904.163940,1912.556152 904.023071,1915.646362 
	C891.816345,1917.658325 867.215149,1917.243530 859.716492,1914.823730 
	C859.716492,1911.746704 859.716187,1908.459229 859.716492,1905.171875 
	C859.718811,1881.215820 859.730408,1857.259766 859.712036,1833.303711 
	C859.709778,1830.312134 859.838867,1827.278442 859.410767,1824.336426 
	C857.774292,1813.088867 849.096924,1806.030518 837.798218,1806.524048 
	C826.753052,1807.006348 819.161621,1814.065308 818.018921,1825.195312 
	C817.646484,1828.822021 817.807312,1832.506348 817.777954,1836.164795 
	C817.612549,1856.779419 817.463501,1877.394165 816.414917,1898.008423 
	C723.921387,1898.006958 632.321899,1898.005737 540.722351,1898.004639 
z"/>
<path fill="#13AE50" opacity="1.000000" stroke="none" 
	d="
M643.875488,2166.312988 
	C612.950500,2143.760254 588.097351,2115.856445 570.063965,2080.754150 
	C573.651794,2074.380615 578.740906,2076.066162 583.166992,2076.061279 
	C659.661133,2075.976074 736.155273,2076.005615 812.649475,2075.988281 
	C817.967773,2075.987061 823.286011,2075.813477 829.356689,2075.768311 
	C838.502075,2079.364990 846.037720,2076.914307 853.777466,2073.310547 
	C855.747192,2074.718262 857.227844,2075.825928 858.718872,2075.840088 
	C873.940552,2075.984375 889.166626,2076.095215 904.383728,2075.804199 
	C906.539673,2075.763184 908.653687,2073.526611 911.469849,2072.643066 
	C921.265320,2079.395508 930.412659,2078.399170 940.098755,2073.840332 
	C943.127380,2075.048340 945.634583,2075.917236 948.147278,2075.933350 
	C961.574219,2076.018799 975.002563,2075.891602 989.194702,2075.912598 
	C996.473877,2078.898438 1002.945496,2077.704834 1010.386230,2075.849121 
	C1029.282837,2075.943848 1047.204102,2076.087646 1065.121460,2075.887939 
	C1068.155518,2075.854248 1071.173340,2074.343018 1074.970459,2073.597168 
	C1096.436523,2081.185303 1117.087402,2080.982422 1138.227539,2074.033203 
	C1139.669312,2075.104248 1140.578613,2075.792236 1141.490356,2075.795410 
	C1169.127686,2075.893799 1196.765869,2076.007080 1224.401489,2075.804688 
	C1226.549683,2075.789062 1228.680908,2073.487061 1231.489502,2072.619629 
	C1240.921997,2079.441895 1250.121948,2078.594482 1259.873291,2075.358398 
	C1265.369751,2076.058105 1270.501709,2076.005859 1275.633545,2076.003906 
	C1299.876831,2075.995117 1324.120239,2076.045654 1348.363159,2075.948975 
	C1351.824585,2075.935303 1355.837891,2077.247559 1359.066528,2073.419434 
	C1381.164429,2081.634277 1402.404175,2081.130615 1424.036377,2073.619385 
	C1427.026001,2074.927734 1429.532715,2075.918213 1432.042480,2075.926270 
	C1452.196045,2075.992676 1472.350464,2075.874023 1493.280273,2075.879883 
	C1503.485962,2079.377686 1512.098267,2077.996826 1520.037354,2072.387207 
	C1522.111694,2074.137207 1523.987305,2075.832031 1525.891602,2075.864746 
	C1539.319824,2076.098145 1552.755493,2076.091797 1566.184448,2075.881348 
	C1568.202271,2075.849609 1570.197021,2074.354980 1572.916016,2073.851318 
	C1584.461548,2079.998291 1595.186890,2078.906982 1606.406372,2074.318359 
	C1607.889160,2075.277344 1608.812866,2075.853271 1609.738892,2075.857178 
	C1629.191162,2075.941406 1648.643921,2076.032471 1668.095093,2075.887451 
	C1670.128906,2075.872314 1672.151855,2074.386230 1674.890747,2073.872559 
	C1685.245972,2081.059082 1694.455688,2077.331787 1704.135254,2073.756592 
	C1708.505737,2074.998291 1712.381958,2075.932861 1716.258911,2075.936523 
	C1804.869019,2076.019043 1893.479248,2075.966309 1982.089233,2076.085693 
	C1987.322266,2076.092773 1992.553589,2077.333008 1997.785767,2077.999756 
	C1992.890869,2086.348145 1988.677246,2095.201416 1982.948486,2102.931885 
	C1973.211670,2116.071045 1963.211060,2129.155518 1952.003174,2141.017334 
	C1943.648071,2149.860107 1933.213501,2156.737793 1922.431152,2163.825195 
	C1916.905640,2162.773438 1912.653931,2162.048584 1908.402100,2162.047852 
	C1491.947510,2161.996582 1075.492920,2162.000000 659.038269,2162.000732 
	C656.372986,2162.000732 653.546204,2161.453613 651.086731,2162.167480 
	C648.499878,2162.918457 646.264465,2164.880371 643.875488,2166.312988 
z"/>
<path fill="#16C259" opacity="1.000000" stroke="none" 
	d="
M1962.689087,1771.057373 
	C1954.420898,1771.125366 1945.848877,1770.071899 1937.276489,1770.070312 
	C1505.893921,1769.990234 1074.511353,1770.015503 643.128845,1769.914429 
	C631.892334,1769.911743 620.656006,1768.636108 608.539001,1767.913696 
	C627.926453,1744.296875 652.644409,1726.436890 680.029053,1712.168945 
	C718.824097,1691.955933 760.096680,1681.802490 803.950684,1681.812866 
	C1123.604248,1681.887939 1443.257812,1681.697876 1762.911133,1681.961182 
	C1842.159058,1682.026489 1908.482910,1712.550415 1962.689087,1771.057373 
z"/>
<path fill="#ED1D25" opacity="1.000000" stroke="none" 
	d="
M1142.617920,280.610504 
	C1221.283325,216.580490 1337.444458,223.334991 1406.129150,299.613495 
	C1456.153198,355.168121 1470.213257,420.500092 1446.643921,491.197540 
	C1423.161499,561.634338 1372.348267,603.936401 1299.749146,619.479919 
	C1288.432007,621.902954 1276.641846,622.116638 1263.866943,623.480408 
	C1256.275146,639.252014 1248.249146,655.925476 1239.230103,674.661743 
	C1233.578369,654.633789 1228.573364,636.897644 1223.464233,618.792908 
	C1219.900513,617.776550 1216.430176,616.770325 1212.950562,615.796875 
	C1126.868774,591.715027 1064.647095,510.154358 1072.630005,413.776184 
	C1077.073853,360.123932 1100.860840,315.854706 1142.617920,280.610504 
M1150.750122,437.494049 
	C1181.313232,468.073334 1211.876221,498.652649 1241.452637,528.244751 
	C1287.936035,481.932709 1333.681030,436.356384 1379.033691,391.170959 
	C1370.678101,382.634277 1361.875488,373.640717 1352.490967,364.052765 
	C1316.172974,400.407379 1279.764771,436.852264 1242.006348,474.648804 
	C1234.365967,466.407471 1227.472046,458.743561 1220.324219,451.324188 
	C1212.925171,443.644012 1205.292603,436.188110 1197.738159,428.658203 
	C1190.534790,421.478241 1183.432251,414.183746 1175.760010,406.785828 
	C1167.036865,415.625610 1159.253540,423.381714 1151.677124,431.335052 
	C1150.562988,432.504608 1150.430542,434.609436 1150.750122,437.494049 
z"/>
<path fill="#14AB4F" opacity="1.000000" stroke="none" 
	d="
M644.182007,2166.913086 
	C646.264465,2164.880371 648.499878,2162.918457 651.086731,2162.167480 
	C653.546204,2161.453613 656.372986,2162.000732 659.038269,2162.000732 
	C1075.492920,2162.000000 1491.947510,2161.996582 1908.402100,2162.047852 
	C1912.653931,2162.048584 1916.905640,2162.773438 1921.703613,2163.836426 
	C1913.116699,2171.043701 1904.507202,2178.519531 1894.750244,2183.924561 
	C1868.075073,2198.701416 1839.886108,2210.234863 1809.711670,2215.208740 
	C1792.060059,2218.118164 1773.932983,2219.240234 1756.016235,2219.273438 
	C1595.360962,2219.570557 1434.704712,2219.447266 1274.048828,2219.447266 
	C1119.392578,2219.447021 964.736267,2219.445557 810.079956,2219.446777 
	C775.680420,2219.447021 742.116394,2214.892822 709.780884,2202.390381 
	C688.105774,2194.009766 667.609863,2183.626953 648.732788,2170.065674 
	C647.396545,2169.105713 645.906799,2168.359131 644.182007,2166.913086 
z"/>
<path fill="#0297FF" opacity="1.000000" stroke="none" 
	d="
M914.373535,1180.091064 
	C913.153503,1193.075195 906.797913,1204.442627 902.987061,1216.609375 
	C895.617249,1240.137939 881.054688,1259.133179 865.883850,1277.847534 
	C865.108887,1278.803345 864.810486,1280.145630 863.788757,1282.428589 
	C877.332703,1290.443970 890.681763,1298.325562 904.011719,1306.239380 
	C913.452881,1311.844238 923.164856,1317.056763 932.225281,1323.224243 
	C945.686646,1332.387207 950.133423,1346.557129 944.536255,1359.680176 
	C938.045410,1374.898438 923.187378,1383.072632 907.111938,1378.770752 
	C897.251038,1376.131958 887.282166,1372.463135 878.573486,1367.237549 
	C857.469788,1354.574585 837.052612,1340.764648 816.417786,1327.326172 
	C813.014893,1325.109985 810.294373,1323.046387 805.626587,1325.311035 
	C780.408752,1337.545776 753.391846,1343.030273 725.655273,1345.063843 
	C686.746155,1347.916382 648.420410,1344.908691 611.524902,1331.240845 
	C555.266602,1310.400269 517.814636,1270.699341 496.410553,1215.219604 
	C488.536133,1194.808838 482.868927,1173.837524 482.380493,1150.975586 
	C513.546814,1150.036621 543.676025,1150.020996 574.058716,1150.843750 
	C574.712524,1155.216797 575.037537,1158.761963 575.527588,1162.284302 
	C576.891296,1172.084717 581.110535,1181.034302 584.507751,1190.145142 
	C605.320374,1245.960571 654.237915,1277.243042 712.158203,1271.962158 
	C723.478394,1270.930176 734.634033,1268.663208 746.677368,1262.266968 
	C734.778503,1255.459839 724.478699,1249.464722 714.079651,1243.647095 
	C703.917847,1237.962402 693.608032,1232.542114 683.457153,1226.838501 
	C678.675049,1224.151611 675.250671,1220.267456 673.665649,1214.767700 
	C669.103577,1198.938477 684.100159,1182.052979 701.127991,1185.002075 
	C710.519409,1186.628540 720.198303,1189.234497 728.554932,1193.653931 
	C746.758118,1203.280640 764.211548,1214.328003 781.936279,1224.854004 
	C785.036072,1226.694824 787.964722,1228.823730 791.619690,1231.249268 
	C793.974121,1228.407471 796.115906,1225.959961 798.107117,1223.395630 
	C808.242126,1210.343506 814.462769,1195.285278 821.058838,1179.885376 
	C825.739807,1179.175781 829.597595,1178.167236 833.475952,1178.080811 
	C844.030090,1177.845337 854.598145,1177.789307 865.151184,1178.048706 
	C881.567444,1178.452026 898.094971,1176.369873 914.373535,1180.091064 
z"/>
<path fill="#0186FF" opacity="1.000000" stroke="none" 
	d="
M1317.924805,1531.844849 
	C1332.221680,1521.553955 1346.467651,1511.191406 1360.833984,1500.998535 
	C1369.787842,1494.645752 1378.172363,1486.181641 1388.188843,1483.003784 
	C1398.206787,1479.825806 1409.938110,1481.923950 1420.918335,1481.922729 
	C1641.498779,1481.898071 1862.079224,1481.904297 2082.659668,1481.904297 
	C2086.619629,1481.904297 2090.579834,1481.904297 2095.996094,1481.904297 
	C2096.067383,1446.834229 2096.137695,1412.348999 2097.286377,1376.939453 
	C2113.893555,1376.027710 2129.422119,1376.040039 2144.950928,1376.052368 
	C2145.132812,1378.698364 2145.471191,1381.344116 2145.473389,1383.990234 
	C2145.512695,1430.274902 2145.520020,1476.559570 2145.496338,1522.844238 
	C2145.494873,1525.754761 2145.182861,1528.665039 2144.961182,1532.516724 
	C2140.085449,1532.516724 2135.829590,1532.516724 2131.573486,1532.516724 
	C1892.491455,1532.517578 1653.409302,1532.537109 1414.327271,1532.425415 
	C1407.426392,1532.422119 1401.105591,1533.039551 1394.313232,1537.683228 
	C1389.268188,1537.007690 1385.720459,1536.099854 1382.164917,1536.068359 
	C1364.953857,1535.916382 1347.740601,1535.972656 1330.528320,1536.017822 
	C1325.827393,1536.030151 1321.195923,1536.051147 1317.924805,1531.844849 
z"/>
<path fill="#0186FF" opacity="1.000000" stroke="none" 
	d="
M1115.845337,1540.073242 
	C1107.177002,1532.431152 1096.776001,1532.401855 1085.955322,1532.408447 
	C849.380737,1532.551880 612.806030,1532.515137 376.231354,1532.512939 
	C371.978973,1532.512817 367.726593,1532.512817 362.432434,1532.512817 
	C362.432434,1493.634033 362.432434,1455.747681 363.504089,1416.937500 
	C380.121704,1416.017578 395.667725,1416.021606 411.213715,1416.025757 
	C411.378754,1434.010010 411.549042,1451.994141 411.704376,1469.978394 
	C411.735291,1473.557739 411.708862,1477.137451 411.708862,1481.904297 
	C416.970825,1481.904297 421.199738,1481.904297 425.428680,1481.904297 
	C652.079834,1481.904297 878.731018,1481.955566 1105.381958,1481.730835 
	C1115.184937,1481.721069 1123.163208,1483.832275 1131.127319,1489.745117 
	C1150.918701,1504.438965 1171.342529,1518.280884 1191.366943,1533.665161 
	C1184.462646,1535.910156 1177.725708,1537.641846 1170.940552,1537.858276 
	C1156.423340,1538.321045 1141.878906,1537.858765 1127.350830,1538.095093 
	C1123.505981,1538.157471 1119.679932,1539.382202 1115.845337,1540.073242 
z"/>
<path fill="#0297FF" opacity="1.000000" stroke="none" 
	d="
M1380.001465,1180.000000 
	C1379.684448,1192.872559 1378.785278,1205.423828 1374.873169,1218.077026 
	C1371.835693,1227.901367 1370.194946,1238.332642 1367.278442,1248.382690 
	C1364.005127,1259.662598 1358.228760,1269.455933 1351.448242,1278.781128 
	C1332.500122,1304.840332 1308.567261,1324.212402 1277.584473,1334.459595 
	C1259.441040,1340.460571 1240.842041,1343.953979 1221.899780,1345.132690 
	C1185.876953,1347.374512 1150.120728,1345.488159 1114.935181,1336.491577 
	C1056.158691,1321.463501 1021.020996,1283.791870 1008.270447,1224.979858 
	C1005.322327,1211.381470 1004.115967,1197.405396 1002.607605,1182.441162 
	C1002.774658,1180.213379 1002.442200,1179.147827 1002.109741,1178.082153 
	C1001.634888,1164.665527 1001.159973,1151.249023 1001.784973,1136.927246 
	C1027.389282,1136.014771 1051.894409,1135.894043 1076.397095,1136.091064 
	C1081.604492,1136.132935 1086.802612,1137.333374 1092.005005,1138.000000 
	C1092.577637,1151.960449 1092.512695,1165.985229 1093.914429,1179.861816 
	C1095.145874,1192.052002 1096.996094,1204.370728 1100.375122,1216.114136 
	C1108.266846,1243.541138 1126.361816,1261.415405 1154.273071,1268.342896 
	C1179.592041,1274.626831 1205.131714,1274.649658 1230.342407,1267.819214 
	C1255.723877,1260.942261 1272.198120,1244.613281 1280.232300,1219.350220 
	C1284.165894,1206.981445 1287.433838,1194.595093 1289.786987,1180.844482 
	C1320.649780,1180.010254 1350.325684,1180.005127 1380.001465,1180.000000 
z"/>
<path fill="#03ADFF" opacity="1.000000" stroke="none" 
	d="
M1819.292725,1049.755371 
	C1830.640869,1035.837891 1841.922729,1021.865479 1853.354980,1008.017456 
	C1866.077515,992.606445 1878.951538,977.320496 1891.718994,961.946594 
	C1893.338501,959.996521 1894.713013,957.843018 1897.488647,954.001709 
	C1892.304565,954.001709 1888.823975,954.001770 1885.343384,954.001770 
	C1824.051880,954.001526 1762.760254,954.082947 1701.469360,953.892273 
	C1694.222046,953.869690 1686.745483,953.224487 1679.784180,951.349487 
	C1665.815552,947.587158 1657.368286,936.328857 1656.514648,922.180908 
	C1655.611938,907.220459 1663.258057,893.820129 1677.008667,888.865295 
	C1684.060669,886.324341 1691.930298,884.961121 1699.436157,884.937805 
	C1785.043579,884.672180 1870.652222,884.714111 1956.260010,884.872742 
	C1962.852417,884.884949 1969.609619,885.733398 1976.000854,887.342102 
	C1994.003418,891.873474 2004.280273,904.347229 2005.999268,922.822266 
	C2007.923462,943.503662 2004.144043,962.437805 1990.237793,978.849670 
	C1969.140625,1003.748047 1948.478760,1029.015137 1926.643799,1053.700928 
	C1922.682739,1048.735352 1918.011719,1050.060181 1913.862305,1050.039795 
	C1882.339355,1049.885376 1850.816040,1049.836914 1819.292725,1049.755371 
z"/>
<path fill="#02AEFF" opacity="1.000000" stroke="none" 
	d="
M503.235474,991.757568 
	C518.731934,955.745605 543.745483,928.066406 577.065369,907.749451 
	C604.849487,890.807922 635.348511,881.684509 667.489868,878.771973 
	C703.116943,875.543518 738.694580,876.609314 773.372070,886.685608 
	C842.695618,906.829285 887.691711,951.889099 908.462158,1021.279053 
	C879.631775,1022.005920 851.694397,1021.915222 823.758972,1022.114929 
	C820.402893,1022.138916 817.057983,1023.737488 813.185303,1024.123169 
	C812.239197,1022.736145 811.800903,1021.838745 811.393982,1020.927307 
	C772.607239,934.044189 655.268921,930.190735 606.691772,992.229492 
	C606.098083,992.987732 605.206360,993.512573 603.488953,994.102783 
	C575.299438,994.039490 548.073608,994.147644 520.851013,993.898621 
	C514.973145,993.844910 509.107025,992.505005 503.235474,991.757568 
z"/>
<path fill="#0094FF" opacity="1.000000" stroke="none" 
	d="
M1782.064941,1226.821655 
	C1772.581543,1237.852173 1763.075195,1248.863159 1753.632202,1259.928223 
	C1751.556763,1262.360229 1749.705322,1264.983521 1746.341919,1269.346069 
	C1751.846313,1269.346069 1755.269653,1269.346069 1758.693115,1269.346191 
	C1833.942749,1269.346558 1909.192627,1269.274902 1984.441895,1269.458252 
	C1992.012939,1269.476685 1999.837891,1270.098267 2007.094238,1272.085693 
	C2020.867798,1275.858032 2027.904907,1285.640015 2028.747314,1299.846680 
	C2029.693481,1315.802734 2023.615845,1328.324707 2010.646729,1333.431641 
	C2003.408203,1336.281982 1995.200562,1337.741455 1987.393677,1337.886108 
	C1959.434448,1338.404541 1931.459595,1338.095703 1903.490723,1338.095947 
	C1833.568481,1338.096558 1763.645508,1338.247192 1693.724854,1337.921875 
	C1683.888428,1337.876099 1673.746460,1336.626343 1664.294800,1333.976562 
	C1641.120117,1327.479492 1630.274048,1305.975830 1632.786255,1283.020874 
	C1634.212646,1269.986938 1642.233154,1260.648682 1649.862427,1251.171997 
	C1658.206055,1240.807739 1667.217896,1230.981323 1676.979492,1221.370728 
	C1681.777466,1222.547363 1685.530029,1223.876587 1689.291992,1223.903076 
	C1715.422852,1224.086792 1741.557007,1223.859619 1767.686401,1224.127319 
	C1772.487915,1224.176392 1777.272583,1225.881104 1782.064941,1226.821655 
z"/>
<path fill="#14B654" opacity="1.000000" stroke="none" 
	d="
M540.432068,1898.800171 
	C632.321899,1898.005737 723.921387,1898.006958 816.600586,1898.928711 
	C817.707397,1908.113159 817.792480,1916.377197 817.750793,1924.640747 
	C817.630859,1948.428101 817.459656,1972.215088 816.414673,1996.001953 
	C723.631470,1996.017822 631.742126,1996.034058 539.852844,1996.050293 
	C538.624451,1988.600952 536.740051,1981.191162 536.287720,1973.695068 
	C534.790283,1948.877808 534.992981,1924.092773 540.432068,1898.800171 
z"/>
<path fill="#16B855" opacity="1.000000" stroke="none" 
	d="
M1740.257935,1876.008301 
	C1833.039551,1875.983398 1925.821045,1875.958496 2019.578369,1875.887207 
	C2028.840820,1899.602417 2031.208862,1924.276611 2031.817261,1949.213745 
	C2031.906128,1952.862061 2031.710571,1956.517090 2030.561768,1961.086426 
	C1923.419800,1961.994995 1817.362671,1961.986206 1711.346191,1961.187256 
	C1712.992676,1955.358643 1714.496338,1950.284912 1716.221924,1945.287720 
	C1724.200195,1922.182861 1732.240112,1899.099487 1740.257935,1876.008301 
z"/>
<path fill="#02A9FF" opacity="1.000000" stroke="none" 
	d="
M1092.199951,1137.079590 
	C1086.802612,1137.333374 1081.604492,1136.132935 1076.397095,1136.091064 
	C1051.894409,1135.894043 1027.389282,1136.014771 1002.031494,1136.041748 
	C1000.955688,1132.757324 1000.541016,1129.453491 1000.539307,1126.149536 
	C1000.507324,1063.881226 1000.373901,1001.612122 1000.680664,939.345276 
	C1000.731140,929.115662 1001.581970,918.591919 1004.121338,908.734497 
	C1009.443115,888.077148 1025.251953,877.241699 1047.192993,877.474731 
	C1068.963257,877.705872 1084.478516,889.129333 1089.713013,909.669556 
	C1091.499512,916.679688 1092.293823,924.125061 1092.312866,931.374817 
	C1092.492065,999.635864 1092.405151,1067.897583 1092.199951,1137.079590 
z"/>
<path fill="#02A9FF" opacity="1.000000" stroke="none" 
	d="
M1484.523926,1128.010132 
	C1484.367065,1124.695435 1484.074585,1121.380737 1484.073486,1118.066040 
	C1484.053223,1057.489380 1483.981445,996.912292 1484.176147,936.336182 
	C1484.202637,928.074707 1484.751465,919.631470 1486.520142,911.594116 
	C1491.330811,889.732971 1507.934692,877.241638 1530.567017,877.478699 
	C1553.130981,877.715088 1569.247559,890.687622 1573.842773,912.671875 
	C1574.992676,918.173096 1575.805420,923.862000 1575.815430,929.466370 
	C1575.931885,995.034912 1575.865356,1060.603760 1574.754395,1127.091309 
	C1543.948975,1128.010132 1514.236450,1128.010132 1484.523926,1128.010132 
z"/>
<path fill="#15B252" opacity="1.000000" stroke="none" 
	d="
M539.771118,1996.888184 
	C631.742126,1996.034058 723.631470,1996.017822 816.604248,1996.922119 
	C817.719604,2016.067749 817.975647,2034.296387 817.692871,2052.516846 
	C817.541809,2062.249268 819.291382,2070.647217 828.604309,2075.720215 
	C823.286011,2075.813477 817.967773,2075.987061 812.649475,2075.988281 
	C736.155273,2076.005615 659.661133,2075.976074 583.166992,2076.061279 
	C578.740906,2076.066162 573.651794,2074.380615 569.995117,2080.069092 
	C565.261353,2072.537598 560.501709,2064.415771 556.624268,2055.892578 
	C548.189209,2037.351074 542.645447,2017.898071 539.771118,1996.888184 
z"/>
<path fill="#029FFF" opacity="1.000000" stroke="none" 
	d="
M1782.594482,1226.558716 
	C1777.272583,1225.881104 1772.487915,1224.176392 1767.686401,1224.127319 
	C1741.557007,1223.859619 1715.422852,1224.086792 1689.291992,1223.903076 
	C1685.530029,1223.876587 1681.777466,1222.547363 1677.546387,1220.952637 
	C1690.578979,1203.631836 1703.984131,1187.094849 1717.612183,1170.743774 
	C1751.081787,1130.586304 1784.653931,1090.514282 1818.738770,1050.081665 
	C1850.816040,1049.836914 1882.339355,1049.885376 1913.862305,1050.039795 
	C1918.011719,1050.060181 1922.682739,1048.735352 1926.057007,1054.038696 
	C1920.238647,1062.040649 1913.918457,1069.196411 1907.815918,1076.533325 
	C1867.973755,1124.433716 1828.180664,1172.374878 1788.361694,1220.294556 
	C1786.665405,1222.336060 1784.872192,1224.297241 1782.594482,1226.558716 
z"/>
<path fill="#0CB8FF" opacity="1.000000" stroke="none" 
	d="
M362.775940,936.042908 
	C362.604645,933.393799 362.284698,930.744690 362.283813,928.095520 
	C362.262146,862.804321 362.268555,797.513062 362.299103,732.221863 
	C362.300446,729.293152 362.575409,726.364563 362.752411,722.851074 
	C434.323792,722.851074 505.384857,722.851074 577.022705,722.851074 
	C577.022705,739.519043 577.022705,755.704468 577.022705,773.044983 
	C549.498718,774.067017 521.990540,773.359314 494.502289,773.490295 
	C467.286591,773.619934 440.069794,773.518677 411.675934,773.518677 
	C411.675934,827.813416 411.675934,881.012878 410.575653,935.121460 
	C393.908905,936.034668 378.342407,936.038757 362.775940,936.042908 
z"/>
<path fill="#0297FF" opacity="1.000000" stroke="none" 
	d="
M1484.344971,1128.931641 
	C1514.236450,1128.010132 1543.948975,1128.010132 1574.562256,1128.011475 
	C1575.610229,1130.995483 1575.883667,1133.977905 1575.885620,1136.960693 
	C1575.917358,1187.868408 1575.993164,1238.776367 1575.829712,1289.683594 
	C1575.807373,1296.616943 1575.174194,1303.676392 1573.755371,1310.453857 
	C1569.104248,1332.671509 1552.186279,1345.989624 1529.501343,1345.905884 
	C1507.803955,1345.825806 1490.903076,1332.104370 1486.281372,1310.340820 
	C1484.977661,1304.201538 1484.194458,1297.827515 1484.178833,1291.558594 
	C1484.043701,1237.657104 1484.139282,1183.755005 1484.344971,1128.931641 
z"/>
<path fill="#14B453" opacity="1.000000" stroke="none" 
	d="
M1711.305664,1961.977539 
	C1817.362671,1961.986206 1923.419800,1961.994995 2030.364746,1962.001221 
	C2030.724487,1981.246704 2027.929810,2000.156372 2021.426514,2019.357422 
	C1916.998291,2020.000000 1813.927124,2020.000000 1710.655029,2019.082520 
	C1710.426758,2009.268066 1710.266479,2000.369141 1710.407349,1991.474976 
	C1710.563110,1981.640137 1710.994385,1971.809814 1711.305664,1961.977539 
z"/>
<path fill="#15B252" opacity="1.000000" stroke="none" 
	d="
M1710.856079,2020.000000 
	C1813.927124,2020.000000 1916.998291,2020.000000 2021.002197,2020.000000 
	C2018.153564,2031.559326 2014.898438,2043.328369 2010.408569,2054.605713 
	C2007.329346,2062.339600 2002.532959,2069.389404 1998.145020,2077.372559 
	C1992.553589,2077.333008 1987.322266,2076.092773 1982.089233,2076.085693 
	C1893.479248,2075.966309 1804.869019,2076.019043 1716.258911,2075.936523 
	C1712.381958,2075.932861 1708.505737,2074.998291 1704.485596,2073.172363 
	C1709.156616,2067.096680 1710.428345,2061.198242 1710.409302,2054.648193 
	C1710.375610,2043.099365 1710.688354,2031.549438 1710.856079,2020.000000 
z"/>
<path fill="#0EBBFF" opacity="1.000000" stroke="none" 
	d="
M2096.523926,876.037598 
	C2096.365234,849.056580 2096.198975,822.075623 2096.052979,795.094543 
	C2096.017334,788.463257 2096.047852,781.831604 2096.047852,774.029907 
	C2068.023438,772.965820 2040.525879,773.696472 2013.049805,773.560852 
	C1985.802612,773.426331 1958.554443,773.531433 1930.688477,773.531433 
	C1930.688477,756.329224 1930.688477,740.139160 1930.688477,723.906067 
	C1937.627686,721.708130 2120.649414,720.695007 2144.572510,722.819580 
	C2144.895752,724.855042 2145.547607,727.049011 2145.548340,729.243225 
	C2145.569092,777.566711 2145.517822,825.890198 2144.381836,875.118286 
	C2127.696777,876.027832 2112.110352,876.032715 2096.523926,876.037598 
z"/>
<path fill="#02A6FF" opacity="1.000000" stroke="none" 
	d="
M502.758667,992.231567 
	C509.107025,992.505005 514.973145,993.844910 520.851013,993.898621 
	C548.073608,994.147644 575.299438,994.039490 603.278198,994.770447 
	C597.897095,1006.817688 590.926270,1017.790771 585.809631,1029.569214 
	C576.599304,1050.771606 572.607971,1073.399658 572.188171,1096.400269 
	C571.862305,1114.252808 573.204529,1132.135864 573.805298,1150.005371 
	C543.676025,1150.020996 513.546814,1150.036621 482.441376,1150.088623 
	C480.456116,1134.645996 478.461731,1119.155518 478.642120,1103.690308 
	C479.023132,1071.024414 484.066071,1039.007446 495.792877,1008.298279 
	C497.800293,1003.041382 500.111145,997.900269 502.758667,992.231567 
z"/>
<path fill="#01A1FF" opacity="1.000000" stroke="none" 
	d="
M813.707886,1024.606201 
	C817.057983,1023.737488 820.402893,1022.138916 823.758972,1022.114929 
	C851.694397,1021.915222 879.631775,1022.005920 908.461914,1022.009155 
	C917.283508,1044.506348 920.200684,1067.944824 921.522827,1091.539062 
	C923.166382,1120.868042 921.483765,1150.066284 914.830078,1179.489502 
	C898.094971,1176.369873 881.567444,1178.452026 865.151184,1178.048706 
	C854.598145,1177.789307 844.030090,1177.845337 833.475952,1178.080811 
	C829.597595,1178.167236 825.739807,1179.175781 821.045227,1179.106079 
	C829.549805,1146.285400 830.435181,1113.384155 827.142090,1080.458130 
	C825.667664,1065.716064 821.008850,1051.281128 817.609619,1036.750244 
	C816.644287,1032.623779 815.026367,1028.650024 813.707886,1024.606201 
z"/>
<path fill="#01A1FF" opacity="1.000000" stroke="none" 
	d="
M1380.259644,1179.198730 
	C1350.325684,1180.005127 1320.649780,1180.010254 1290.127686,1180.032715 
	C1289.470215,1129.317139 1289.658936,1078.584229 1290.949219,1026.927734 
	C1321.769409,1026.013550 1351.488037,1026.022705 1381.206665,1026.031982 
	C1381.367310,1030.003784 1381.667358,1033.975708 1381.667236,1037.947510 
	C1381.666138,1078.469727 1381.660767,1118.992188 1381.533081,1159.514160 
	C1381.513306,1165.809570 1380.871826,1172.103149 1380.259644,1179.198730 
z"/>
<path fill="#01A1FF" opacity="1.000000" stroke="none" 
	d="
M362.605530,936.962891 
	C378.342407,936.038757 393.908905,936.034668 410.361053,936.038330 
	C411.393097,937.695679 411.667480,939.345215 411.667480,940.994751 
	C411.667206,1028.719971 411.643738,1116.445068 410.531982,1205.087891 
	C393.898773,1206.003662 378.356262,1206.001709 362.813751,1205.999878 
	C362.651428,1204.020752 362.346985,1202.041504 362.347260,1200.062378 
	C362.359711,1112.669189 362.399048,1025.276123 362.605530,936.962891 
z"/>
<path fill="#03ADFF" opacity="1.000000" stroke="none" 
	d="
M1381.412354,1025.113037 
	C1351.488037,1026.022705 1321.769409,1026.013550 1291.127686,1026.005493 
	C1290.170654,991.403748 1290.092285,956.800781 1290.175049,922.198242 
	C1290.182983,918.919678 1291.044556,915.608093 1291.775635,912.371948 
	C1296.882202,889.768127 1312.282471,877.289978 1335.006226,877.252747 
	C1357.673706,877.215576 1373.989136,889.645813 1379.151489,911.573303 
	C1380.738281,918.312805 1381.490356,925.392273 1381.544556,932.324524 
	C1381.784058,962.945984 1381.629761,993.570557 1381.412354,1025.113037 
z"/>
<path fill="#0297FF" opacity="1.000000" stroke="none" 
	d="
M2145.183105,1375.137573 
	C2129.422119,1376.040039 2113.893555,1376.027710 2097.465820,1376.019653 
	C2096.410400,1374.043945 2096.116699,1372.063843 2096.117188,1370.083862 
	C2096.130615,1287.344360 2096.170898,1204.604858 2097.285156,1120.940186 
	C2113.894043,1120.027832 2129.425537,1120.040527 2144.957275,1120.053223 
	C2145.136719,1121.697021 2145.473389,1123.340942 2145.473389,1124.984741 
	C2145.472168,1208.064087 2145.442139,1291.143433 2145.183105,1375.137573 
z"/>
<path fill="#0382FF" opacity="1.000000" stroke="none" 
	d="
M1116.192383,1540.651123 
	C1119.679932,1539.382202 1123.505981,1538.157471 1127.350830,1538.095093 
	C1141.878906,1537.858765 1156.423340,1538.321045 1170.940552,1537.858276 
	C1177.725708,1537.641846 1184.462646,1535.910156 1191.711426,1534.233521 
	C1209.187378,1545.260742 1226.174194,1556.918213 1243.158203,1568.579712 
	C1246.444336,1570.836182 1249.720581,1573.107422 1253.795288,1575.919800 
	C1274.664429,1561.384766 1295.628418,1546.783691 1317.258545,1532.013672 
	C1321.195923,1536.051147 1325.827393,1536.030151 1330.528320,1536.017822 
	C1347.740601,1535.972656 1364.953857,1535.916382 1382.164917,1536.068359 
	C1385.720459,1536.099854 1389.268188,1537.007690 1393.616089,1537.857666 
	C1383.932129,1545.822144 1373.544678,1553.572754 1362.953857,1561.034790 
	C1328.913208,1585.018921 1294.799561,1608.899536 1260.704102,1632.806030 
	C1258.553345,1634.314209 1256.318237,1635.701782 1253.487793,1637.562500 
	C1207.794922,1605.420776 1162.167114,1573.324829 1116.192383,1540.651123 
z"/>
<path fill="#02A9FF" opacity="1.000000" stroke="none" 
	d="
M2145.187500,1119.137695 
	C2129.425537,1120.040527 2113.894043,1120.027832 2097.463379,1120.020508 
	C2096.408447,1118.046021 2096.116211,1116.066162 2096.116455,1114.086426 
	C2096.126465,1035.351318 2096.162842,956.616150 2096.359863,876.959351 
	C2112.110352,876.032715 2127.696777,876.027832 2144.153320,876.030396 
	C2145.185303,877.685120 2145.488281,879.332275 2145.488037,880.979492 
	C2145.480957,960.060486 2145.447998,1039.141479 2145.187500,1119.137695 
z"/>
<path fill="#0094FF" opacity="1.000000" stroke="none" 
	d="
M362.625397,1206.919922 
	C378.356262,1206.001709 393.898773,1206.003662 410.324829,1206.003174 
	C411.369110,1207.646973 411.670319,1209.292969 411.670380,1210.939087 
	C411.672668,1278.688843 411.647888,1346.438721 411.420105,1415.107178 
	C395.667725,1416.021606 380.121704,1416.017578 363.692902,1416.020508 
	C362.648438,1414.049316 362.345215,1412.071167 362.345612,1410.093018 
	C362.358246,1342.675293 362.399750,1275.257568 362.625397,1206.919922 
z"/>
<path fill="#0EBBFF" opacity="1.000000" stroke="none" 
	d="
M1001.886719,1178.427246 
	C1002.442200,1179.147827 1002.774658,1180.213379 1002.702515,1181.568481 
	C1002.086426,1180.829468 1001.875061,1179.800903 1001.886719,1178.427246 
z"/>
<path fill="#FBFEFC" opacity="1.000000" stroke="none" 
	d="
M779.020752,509.146057 
	C777.939514,519.988892 777.206848,529.940552 775.834351,539.803223 
	C775.167969,544.591736 772.349976,548.407227 767.385376,550.073975 
	C760.678955,552.325378 754.379272,550.182983 751.542480,543.565369 
	C749.207397,538.118286 747.343811,532.217163 746.661133,526.355408 
	C742.809875,493.287567 739.328735,460.176025 735.864807,427.064392 
	C735.416931,422.783142 735.397583,418.371216 735.866821,414.095276 
	C737.560425,398.664581 753.406555,389.356018 767.824646,395.050201 
	C772.881714,397.047363 776.390259,400.787903 777.473877,405.798126 
	C779.362854,414.532532 781.579285,423.470001 781.502563,432.303619 
	C781.282776,457.613525 779.981873,482.914062 779.020752,509.146057 
z"/>
<path fill="#FBFEFC" opacity="1.000000" stroke="none" 
	d="
M753.748474,618.763428 
	C742.550049,612.402649 741.935120,595.972168 746.734558,588.165283 
	C752.257874,579.180969 763.164795,574.907166 773.520691,578.110291 
	C783.971619,581.342896 790.880310,592.012695 789.475220,602.750183 
	C788.000061,614.022400 779.356567,622.087036 767.796814,622.028931 
	C763.327759,622.006470 758.867737,620.189880 753.748474,618.763428 
z"/>
<path fill="#FFFDFA" opacity="1.000000" stroke="none" 
	d="
M1734.971558,366.657959 
	C1763.044922,356.874390 1789.528442,359.064514 1814.487183,373.606293 
	C1838.083618,387.354187 1848.613403,412.688324 1842.082275,437.465027 
	C1838.885010,449.594238 1831.283569,458.725555 1821.801270,466.381775 
	C1814.037354,472.650696 1806.131714,478.785126 1797.931885,484.463654 
	C1786.343018,492.489410 1777.360474,502.113342 1774.035889,516.368103 
	C1772.232544,524.100037 1767.416138,529.325989 1758.888672,530.029785 
	C1746.930054,531.016724 1738.079590,523.280945 1738.069946,511.253815 
	C1738.057617,495.849548 1743.590454,482.478424 1755.021851,472.136749 
	C1762.650024,465.235809 1771.128662,459.274811 1779.228394,452.895386 
	C1783.669312,449.397705 1788.313599,446.127502 1792.514282,442.362061 
	C1800.888794,434.855164 1804.485229,425.426453 1801.158447,414.467133 
	C1797.785400,403.355377 1789.669312,396.734406 1778.446167,394.223541 
	C1759.700317,390.029663 1747.885010,395.197479 1738.077759,411.817902 
	C1735.379883,416.389679 1733.363037,421.357697 1730.842407,426.040863 
	C1725.332031,436.278564 1716.644897,440.145569 1706.894287,436.859680 
	C1697.008545,433.528320 1691.755981,424.287231 1693.815918,413.025848 
	C1696.587280,397.874359 1705.015015,386.086090 1717.069092,376.996368 
	C1722.328735,373.030243 1728.504517,370.278992 1734.971558,366.657959 
z"/>
<path fill="#FFFDFA" opacity="1.000000" stroke="none" 
	d="
M1774.776001,572.307983 
	C1769.732300,584.860352 1761.663452,589.971436 1750.060425,588.568909 
	C1737.236206,587.018738 1729.170166,577.361511 1730.060547,564.623474 
	C1730.903320,552.564819 1740.187134,543.868713 1752.374878,543.721436 
	C1765.166748,543.567017 1774.779541,552.149658 1775.618408,564.660767 
	C1775.770874,566.934692 1775.231201,569.254944 1774.776001,572.307983 
z"/>
<path fill="#FBFEFC" opacity="1.000000" stroke="none" 
	d="
M1605.848267,2073.668945 
	C1595.186890,2078.906982 1584.461548,2079.998291 1572.698608,2073.164551 
	C1565.671387,2064.352295 1565.642822,2055.037598 1565.534790,2045.861328 
	C1565.334717,2028.866699 1565.595337,2011.866089 1565.336426,1994.872925 
	C1565.245483,1988.912109 1564.860962,1982.798462 1563.421509,1977.052246 
	C1561.233643,1968.318115 1556.052856,1962.164795 1545.278809,1961.863525 
	C1539.332153,1961.317627 1534.108276,1960.939697 1528.886597,1960.966553 
	C1525.731812,1960.982788 1523.902222,1962.545654 1525.034424,1966.963257 
	C1524.727051,1995.454956 1524.641968,2023.051270 1524.664673,2050.647705 
	C1524.670776,2058.027100 1524.155762,2065.211182 1519.851685,2071.563232 
	C1512.098267,2077.996826 1503.485962,2079.377686 1492.858154,2075.318115 
	C1483.182861,2069.239990 1482.414795,2060.607422 1482.380981,2051.790039 
	C1482.299316,2030.489624 1482.406006,2009.188599 1482.327393,1987.888306 
	C1482.265991,1971.260010 1482.040283,1954.632202 1481.887451,1938.004272 
	C1482.047119,1930.026367 1482.317505,1922.048950 1482.346680,1914.070557 
	C1482.453735,1884.764893 1482.478882,1855.458984 1482.538574,1826.153076 
	C1482.556641,1817.226685 1487.440186,1811.393311 1496.032104,1810.062134 
	C1518.243042,1806.620605 1540.592529,1807.447144 1562.646973,1810.245361 
	C1584.696167,1813.042847 1600.259033,1828.135864 1604.290283,1849.497803 
	C1607.487305,1866.438843 1606.379395,1883.231445 1605.846436,1901.770264 
	C1602.677368,1918.596436 1595.801880,1931.221436 1580.344482,1939.082031 
	C1599.456055,1947.980713 1605.082642,1963.313354 1606.367554,1981.160767 
	C1606.867676,1988.105957 1607.345215,1995.052612 1607.617554,2002.915527 
	C1607.852783,2021.941406 1605.663452,2040.145630 1609.826904,2058.125488 
	C1611.125977,2063.735596 1610.282959,2069.285400 1605.848267,2073.668945 
M1565.195679,1881.185791 
	C1564.747314,1874.898438 1564.709839,1868.547119 1563.741577,1862.340942 
	C1562.652222,1855.358765 1558.909912,1849.913940 1551.709839,1847.858765 
	C1543.024414,1845.379517 1534.259766,1845.587402 1525.633423,1847.112183 
	C1523.764282,1859.923950 1524.255127,1915.075684 1526.340576,1922.424561 
	C1531.791138,1922.424561 1537.413940,1922.655762 1543.011475,1922.377197 
	C1555.295532,1921.766235 1562.118652,1916.018921 1563.998047,1903.918335 
	C1565.061768,1897.069946 1564.841431,1890.022217 1565.195679,1881.185791 
z"/>
<path fill="#FBFEFC" opacity="1.000000" stroke="none" 
	d="
M829.356689,2075.768066 
	C819.291382,2070.647217 817.541809,2062.249268 817.692871,2052.516846 
	C817.975647,2034.296387 817.719604,2016.067749 817.498169,1996.922363 
	C817.459656,1972.215088 817.630859,1948.428101 817.750793,1924.640747 
	C817.792480,1916.377197 817.707397,1908.113159 817.494568,1898.929077 
	C817.463501,1877.394165 817.612549,1856.779419 817.777954,1836.164795 
	C817.807312,1832.506348 817.646484,1828.822021 818.018921,1825.195312 
	C819.161621,1814.065308 826.753052,1807.006348 837.798218,1806.524048 
	C849.096924,1806.030518 857.774292,1813.088867 859.410767,1824.336426 
	C859.838867,1827.278442 859.709778,1830.312134 859.712036,1833.303711 
	C859.730408,1857.259766 859.718811,1881.215820 859.716492,1905.171875 
	C859.716187,1908.459229 859.716492,1911.746704 859.716492,1914.823730 
	C867.215149,1917.243530 891.816345,1917.658325 904.023071,1915.646362 
	C904.163940,1912.556152 904.434998,1909.318848 904.439453,1906.081421 
	C904.472778,1881.792725 904.414551,1857.503784 904.492676,1833.215332 
	C904.504333,1829.585449 904.650269,1825.857056 905.471619,1822.346802 
	C908.130066,1810.986450 915.724487,1805.477051 926.679260,1806.523560 
	C937.937805,1807.598999 945.505493,1815.201538 946.293701,1826.376221 
	C946.504028,1829.357422 946.389771,1832.362671 946.392334,1835.356934 
	C946.421021,1868.961426 946.443604,1902.566040 946.480713,1938.006592 
	C946.459900,1977.596313 946.308167,2015.350464 946.490601,2053.103027 
	C946.527710,2060.791016 944.869629,2067.467529 939.579895,2073.107422 
	C930.412659,2078.399170 921.265320,2079.395508 911.161255,2072.063477 
	C905.461487,2065.405762 904.408936,2058.655762 904.427185,2051.480225 
	C904.499268,2023.169556 904.448547,1994.858521 904.443665,1966.547729 
	C904.443054,1963.011841 904.443604,1959.475952 904.443604,1955.781494 
	C888.961243,1955.781494 874.840393,1955.781494 859.737610,1955.781494 
	C859.737610,1960.039307 859.738098,1963.632446 859.737549,1967.225708 
	C859.733093,1995.536499 859.595947,2023.848389 859.811340,2052.157471 
	C859.869629,2059.822021 858.323242,2066.634033 853.293213,2072.503418 
	C846.037720,2076.914307 838.502075,2079.364990 829.356689,2075.768066 
z"/>
<path fill="#FBFEFC" opacity="1.000000" stroke="none" 
	d="
M1423.554932,2072.846436 
	C1402.404175,2081.130615 1381.164429,2081.634277 1358.629150,2072.930420 
	C1355.180176,2070.909912 1352.739380,2069.768555 1350.708374,2068.122070 
	C1338.038208,2057.849854 1329.539673,2044.955444 1328.336670,2028.420898 
	C1327.164917,2012.315430 1326.955688,1996.140015 1326.558960,1979.082031 
	C1326.825562,1960.642944 1326.938599,1943.116577 1326.862915,1925.591187 
	C1326.800171,1911.059082 1326.515137,1896.527954 1326.328613,1881.996338 
	C1326.885498,1873.723267 1327.179565,1865.422119 1328.064819,1857.184326 
	C1329.209595,1846.534058 1332.443604,1836.413208 1338.170654,1827.337891 
	C1346.038452,1814.870239 1358.680786,1809.489380 1372.276001,1806.562500 
	C1386.012207,1803.605347 1399.910522,1804.063354 1413.484985,1808.173218 
	C1435.655151,1814.885864 1448.308228,1830.085327 1451.853882,1852.688354 
	C1453.385986,1862.455444 1454.154419,1872.409302 1454.384521,1882.299072 
	C1454.802246,1900.250000 1454.557617,1918.216553 1454.603394,1938.001709 
	C1454.443970,1965.996826 1454.607422,1992.174805 1453.996582,2018.334717 
	C1453.452148,2041.646729 1444.555054,2060.738770 1423.554932,2072.846436 
M1412.523560,1990.997803 
	C1412.516846,1952.339966 1412.561768,1913.682007 1412.446045,1875.024414 
	C1412.429199,1869.388306 1412.294556,1863.609619 1411.076416,1858.150757 
	C1408.767822,1847.806030 1401.615356,1842.906860 1390.540161,1843.011963 
	C1379.510254,1843.116577 1372.543579,1848.271362 1370.272949,1858.563843 
	C1369.347534,1862.758667 1368.947998,1867.150269 1368.938843,1871.453857 
	C1368.837769,1918.442871 1368.826172,1965.432251 1368.910522,2012.421265 
	C1368.918335,2016.723877 1369.319458,2021.127930 1370.303467,2025.304565 
	C1372.199707,2033.352783 1376.822632,2038.833130 1385.544434,2040.442383 
	C1400.293701,2043.163696 1410.712402,2035.982178 1412.025757,2020.966553 
	C1412.836426,2011.699463 1412.400269,2002.323242 1412.523560,1990.997803 
z"/>
<path fill="#FBFEFC" opacity="1.000000" stroke="none" 
	d="
M1137.696289,2073.330811 
	C1117.087402,2080.982422 1096.436523,2081.185303 1074.547607,2073.085693 
	C1061.389160,2066.571045 1053.508667,2056.964111 1048.877808,2044.681274 
	C1044.958984,2034.287231 1043.402954,2023.419189 1044.023193,2012.318970 
	C1044.620483,2001.628174 1051.254517,1994.866821 1061.567749,1994.097046 
	C1073.542358,1993.203003 1081.033813,1998.705322 1082.986572,2010.162598 
	C1083.711670,2014.416504 1083.618896,2018.804199 1084.220581,2023.085815 
	C1085.254639,2030.444214 1088.455200,2036.950073 1095.787964,2039.281738 
	C1109.387207,2043.605957 1124.981445,2040.192017 1126.516602,2020.211548 
	C1126.669800,2018.220215 1126.749390,2016.220093 1126.779663,2014.222778 
	C1127.007324,1999.190796 1122.173218,1985.806641 1111.827393,1975.095825 
	C1099.355347,1962.183716 1086.037720,1950.088379 1073.086060,1937.639526 
	C1068.948364,1932.502563 1064.645630,1927.488647 1060.704590,1922.204956 
	C1049.874023,1907.684692 1045.288574,1890.997192 1044.214600,1872.047119 
	C1044.203247,1868.473267 1044.115601,1866.028687 1044.027832,1863.584229 
	C1044.770752,1859.344849 1046.124756,1855.107300 1046.136230,1850.865845 
	C1046.164917,1840.301514 1051.876709,1832.218262 1057.505127,1824.328491 
	C1064.406982,1814.653320 1074.424316,1809.611328 1086.112793,1807.231445 
	C1101.976318,1804.001343 1117.334351,1804.057251 1132.862427,1809.566895 
	C1151.306641,1816.111084 1160.888184,1829.718262 1165.694702,1847.593384 
	C1166.970215,1852.336670 1167.404419,1857.344727 1167.851196,1862.265259 
	C1169.213379,1877.270630 1161.641846,1885.562012 1146.176025,1885.656738 
	C1143.969116,1885.500122 1143.124023,1885.422241 1141.784668,1884.892212 
	C1132.530762,1881.566650 1129.255859,1874.845337 1128.371460,1866.307861 
	C1127.999756,1862.719482 1127.664429,1859.023560 1126.531006,1855.638184 
	C1123.590454,1846.854004 1116.800537,1842.876221 1106.301514,1843.216675 
	C1096.351196,1843.539307 1090.596924,1847.691406 1088.110840,1856.881714 
	C1084.661865,1869.631348 1086.341675,1881.707153 1093.716309,1893.536133 
	C1102.195312,1908.171997 1114.491577,1918.481201 1126.476318,1929.041016 
	C1145.535767,1945.834351 1161.075195,1964.935669 1167.557861,1991.073364 
	C1167.949219,1997.306396 1168.619019,2002.604370 1168.741455,2007.915161 
	C1169.363892,2034.895142 1162.709595,2058.487793 1137.696289,2073.330811 
z"/>
<path fill="#FBFEFC" opacity="1.000000" stroke="none" 
	d="
M1710.655029,2019.082520 
	C1710.688354,2031.549438 1710.375610,2043.099365 1710.409302,2054.648193 
	C1710.428345,2061.198242 1709.156616,2067.096680 1703.991699,2072.431641 
	C1694.455688,2077.331787 1685.245972,2081.059082 1674.640747,2073.195801 
	C1669.865845,2068.368408 1668.357666,2064.040283 1668.482422,2058.323730 
	C1668.804688,2043.559937 1668.203369,2028.776001 1668.169189,2013.080322 
	C1668.392212,1997.197632 1668.446167,1982.234619 1668.413940,1967.271729 
	C1668.408203,1964.627319 1668.578369,1961.802002 1667.755737,1959.368286 
	C1661.278564,1940.203857 1654.579956,1921.114502 1647.949585,1902.001953 
	C1641.668335,1883.901855 1635.371338,1865.807251 1629.111938,1847.699585 
	C1625.616089,1837.586670 1624.328491,1827.186035 1626.529663,1816.687744 
	C1627.072144,1814.100586 1629.350708,1811.019653 1631.683350,1809.812378 
	C1642.540283,1804.193970 1656.944092,1805.001343 1661.838379,1816.542603 
	C1665.686401,1825.616821 1668.826904,1835.022095 1671.783081,1844.437012 
	C1677.487305,1862.604248 1682.824951,1880.886597 1688.383545,1899.100098 
	C1688.642822,1899.949097 1689.572144,1900.593506 1691.076538,1902.396729 
	C1692.391602,1898.993896 1693.623657,1896.344727 1694.451904,1893.574951 
	C1699.853638,1875.512329 1705.012085,1857.375488 1710.585693,1839.366699 
	C1712.849731,1832.051514 1715.572266,1824.816406 1718.833618,1817.896973 
	C1720.528809,1814.300171 1721.445190,1809.593384 1726.717651,1808.482178 
	C1733.227417,1807.110229 1739.616821,1805.445435 1746.118164,1808.427979 
	C1751.938965,1811.098267 1756.245117,1819.278320 1755.123779,1827.014404 
	C1754.413452,1831.914062 1752.980591,1836.752930 1751.444336,1841.480103 
	C1747.849365,1852.541626 1743.996826,1863.519653 1740.253296,1875.269897 
	C1732.240112,1899.099487 1724.200195,1922.182861 1716.221924,1945.287720 
	C1714.496338,1950.284912 1712.992676,1955.358643 1711.346191,1961.187256 
	C1710.994385,1971.809814 1710.563110,1981.640137 1710.407349,1991.474976 
	C1710.266479,2000.369141 1710.426758,2009.268066 1710.655029,2019.082520 
z"/>
<path fill="#FBFEFC" opacity="1.000000" stroke="none" 
	d="
M1259.508667,2074.629639 
	C1250.121948,2078.594482 1240.921997,2079.441895 1231.203369,2071.999756 
	C1226.183228,2065.720215 1225.727783,2059.574951 1225.713379,2053.202148 
	C1225.665649,2032.134399 1225.450317,2011.066772 1225.488281,1989.079956 
	C1225.701660,1980.555176 1225.777344,1972.949219 1225.740845,1965.343872 
	C1225.616943,1939.561768 1225.453491,1913.779785 1225.305176,1887.997803 
	C1225.305054,1874.472290 1225.305054,1860.946655 1225.305054,1846.197632 
	C1217.382202,1846.197632 1210.148804,1845.926514 1202.944702,1846.268799 
	C1194.670898,1846.662109 1186.978149,1845.867798 1180.229370,1837.352905 
	C1180.229370,1833.277466 1179.951538,1827.342041 1180.303955,1821.444336 
	C1180.692505,1814.940186 1183.995483,1811.294678 1190.335205,1810.283569 
	C1196.205322,1809.347778 1202.160889,1808.479126 1208.085327,1808.434082 
	C1234.038452,1808.236816 1259.994141,1808.283813 1285.947998,1808.415283 
	C1290.212036,1808.436768 1294.459717,1809.526001 1298.735107,1809.773682 
	C1314.194458,1810.668823 1316.614502,1830.492310 1310.794556,1838.977051 
	C1307.538696,1843.723999 1303.246582,1846.249756 1297.407837,1846.203125 
	C1288.127197,1846.129028 1278.845459,1846.183105 1268.151855,1846.183105 
	C1267.308105,1857.864136 1267.872070,1869.031128 1267.809082,1882.004517 
	C1267.788208,1894.092529 1267.698120,1904.340942 1267.748657,1914.588379 
	C1267.856323,1936.393555 1268.036987,1958.198364 1267.998657,1980.924072 
	C1267.774292,2005.987671 1267.650269,2030.130981 1267.753540,2054.273193 
	C1267.787842,2062.301025 1265.843018,2069.294678 1259.508667,2074.629639 
z"/>
<path fill="#FBFEFC" opacity="1.000000" stroke="none" 
	d="
M1009.409485,2075.782471 
	C1002.945496,2077.704834 996.473877,2078.898438 988.789490,2075.344971 
	C980.105164,2069.457764 977.738953,2062.088867 977.869141,2053.181885 
	C978.144775,2034.315674 978.006958,2015.442505 977.935303,1996.572510 
	C977.861145,1977.051270 977.664551,1957.530640 977.521484,1938.009644 
	C977.668152,1917.032104 977.800293,1896.054443 977.965881,1875.077026 
	C978.110535,1856.758667 978.292786,1838.440552 978.621094,1818.811523 
	C979.132629,1816.969604 979.482971,1816.439331 979.834717,1815.910034 
	C981.277893,1814.590698 982.785645,1813.334839 984.153259,1811.941162 
	C991.240784,1804.718872 999.822144,1804.743530 1008.009827,1808.522949 
	C1015.619385,1812.035400 1019.932312,1818.706543 1019.916626,1827.637329 
	C1019.864746,1857.175903 1019.898865,1886.714600 1019.908813,1916.253174 
	C1019.911072,1922.890747 1019.949097,1929.528198 1019.982300,1938.009766 
	C1019.965759,1977.053345 1019.782593,2014.253906 1020.013000,2051.451904 
	C1020.074585,2061.398193 1017.767334,2069.769043 1009.409485,2075.782471 
z"/>
<path fill="#16B855" opacity="1.000000" stroke="none" 
	d="
M1224.413452,1888.000000 
	C1225.453491,1913.779785 1225.616943,1939.561768 1225.740845,1965.343872 
	C1225.777344,1972.949219 1225.701660,1980.555176 1224.597534,1989.082153 
	C1204.873047,1990.050415 1186.228271,1990.097290 1167.583618,1990.144287 
	C1161.075195,1964.935669 1145.535767,1945.834351 1126.476318,1929.041016 
	C1114.491577,1918.481201 1102.195312,1908.171997 1094.150879,1892.815186 
	C1098.125244,1890.295410 1101.756958,1888.350342 1105.479492,1888.157837 
	C1114.733276,1887.679321 1124.036255,1888.212646 1133.302734,1887.877319 
	C1136.321411,1887.768066 1139.288330,1886.229370 1142.278931,1885.344360 
	C1143.124023,1885.422241 1143.969116,1885.500122 1145.406982,1885.819824 
	C1147.258301,1887.270752 1148.540771,1889.551636 1149.771973,1889.524170 
	C1163.360229,1889.222900 1176.936279,1888.388306 1190.524292,1888.054810 
	C1201.517334,1887.785034 1212.522095,1888.001587 1224.413452,1888.000000 
z"/>
<path fill="#15B252" opacity="1.000000" stroke="none" 
	d="
M1010.386230,2075.849121 
	C1017.767334,2069.769043 1020.074585,2061.398193 1020.013000,2051.451904 
	C1019.782593,2014.253906 1019.965759,1977.053345 1020.168945,1938.931152 
	C1037.249268,1937.952148 1054.154541,1937.895752 1072.072998,1937.739502 
	C1086.037720,1950.088379 1099.355347,1962.183716 1111.827393,1975.095825 
	C1122.173218,1985.806641 1127.007324,1999.190796 1126.779663,2014.222778 
	C1126.749390,2016.220093 1126.669800,2018.220215 1126.516602,2020.211548 
	C1124.981445,2040.192017 1109.387207,2043.605957 1095.787964,2039.281738 
	C1088.455200,2036.950073 1085.254639,2030.444214 1084.220581,2023.085815 
	C1083.618896,2018.804199 1083.711670,2014.416504 1082.986572,2010.162598 
	C1081.033813,1998.705322 1073.542358,1993.203003 1061.567749,1994.097046 
	C1051.254517,1994.866821 1044.620483,2001.628174 1044.023193,2012.318970 
	C1043.402954,2023.419189 1044.958984,2034.287231 1048.877808,2044.681274 
	C1053.508667,2056.964111 1061.389160,2066.571045 1073.775879,2073.002930 
	C1071.173340,2074.343018 1068.155518,2075.854248 1065.121460,2075.887939 
	C1047.204102,2076.087646 1029.282837,2075.943848 1010.386230,2075.849121 
z"/>
<path fill="#14B654" opacity="1.000000" stroke="none" 
	d="
M1647.015869,1902.001465 
	C1654.579956,1921.114502 1661.278564,1940.203857 1667.755737,1959.368286 
	C1668.578369,1961.802002 1668.408203,1964.627319 1668.413940,1967.271729 
	C1668.446167,1982.234619 1668.392212,1997.197632 1667.425537,2013.063721 
	C1658.213379,2013.475586 1665.275391,2006.934204 1662.321533,2003.849976 
	C1661.904785,2003.572998 1661.104980,2002.580078 1660.290771,2002.568237 
	C1642.805908,2002.312378 1625.319336,2002.166138 1607.833130,2001.998657 
	C1607.345215,1995.052612 1606.867676,1988.105957 1606.367554,1981.160767 
	C1605.082642,1963.313354 1599.456055,1947.980713 1580.344482,1939.082031 
	C1595.801880,1931.221436 1602.677368,1918.596436 1605.914307,1902.705811 
	C1619.503296,1902.004028 1632.792725,1902.002563 1647.015869,1902.001465 
z"/>
<path fill="#16B855" opacity="1.000000" stroke="none" 
	d="
M1268.187744,1980.003296 
	C1268.036987,1958.198364 1267.856323,1936.393555 1267.748657,1914.588379 
	C1267.698120,1904.340942 1267.788208,1894.092529 1268.002930,1882.923584 
	C1286.929199,1882.001465 1305.667114,1882.000244 1325.366699,1881.997803 
	C1326.515137,1896.527954 1326.800171,1911.059082 1326.862915,1925.591187 
	C1326.938599,1943.116577 1326.825562,1960.642944 1325.597656,1979.083740 
	C1305.663330,1980.000122 1286.925537,1980.001709 1268.187744,1980.003296 
z"/>
<path fill="#15B252" opacity="1.000000" stroke="none" 
	d="
M976.621521,1938.009277 
	C977.664551,1957.530640 977.861145,1977.051270 977.935303,1996.572510 
	C978.006958,2015.442505 978.144775,2034.315674 977.869141,2053.181885 
	C977.738953,2062.088867 980.105164,2069.457764 988.025208,2075.270264 
	C975.002563,2075.891602 961.574219,2076.018799 948.147278,2075.933350 
	C945.634583,2075.917236 943.127380,2075.048340 940.098755,2073.840332 
	C944.869629,2067.467529 946.527710,2060.791016 946.490601,2053.103027 
	C946.308167,2015.350464 946.459900,1977.596313 946.682617,1938.922974 
	C956.488342,1938.005127 966.104919,1938.007080 976.621521,1938.009277 
z"/>
<path fill="#15B252" opacity="1.000000" stroke="none" 
	d="
M1424.036377,2073.619385 
	C1444.555054,2060.738770 1453.452148,2041.646729 1453.996582,2018.334717 
	C1454.607422,1992.174805 1454.443970,1965.996826 1454.830811,1938.911255 
	C1463.381836,1937.998047 1471.719238,1938.000488 1480.972168,1938.003540 
	C1482.040283,1954.632202 1482.265991,1971.260010 1482.327393,1987.888306 
	C1482.406006,2009.188599 1482.299316,2030.489624 1482.380981,2051.790039 
	C1482.414795,2060.607422 1483.182861,2069.239990 1492.082520,2075.250000 
	C1472.350464,2075.874023 1452.196045,2075.992676 1432.042480,2075.926270 
	C1429.532715,2075.918213 1427.026001,2074.927734 1424.036377,2073.619385 
z"/>
<path fill="#5ECE8A" opacity="1.000000" stroke="none" 
	d="
M1043.462891,1863.830200 
	C1044.115601,1866.028687 1044.203247,1868.473267 1043.685791,1871.371094 
	C1043.019775,1869.241821 1042.958862,1866.658936 1043.462891,1863.830200 
z"/>
<path fill="#5ECE8A" opacity="1.000000" stroke="none" 
	d="
M979.272766,1816.050781 
	C979.482971,1816.439331 979.132629,1816.969604 978.516296,1817.895752 
	C978.402893,1817.590820 978.556824,1816.891235 979.272766,1816.050781 
z"/>
<path fill="#15B252" opacity="1.000000" stroke="none" 
	d="
M1267.998657,1980.924072 
	C1286.925537,1980.001709 1305.663330,1980.000122 1325.362549,1979.996826 
	C1326.955688,1996.140015 1327.164917,2012.315430 1328.336670,2028.420898 
	C1329.539673,2044.955444 1338.038208,2057.849854 1350.708374,2068.122070 
	C1352.739380,2069.768555 1355.180176,2070.909912 1357.868896,2072.773926 
	C1355.837891,2077.247559 1351.824585,2075.935303 1348.363159,2075.948975 
	C1324.120239,2076.045654 1299.876831,2075.995117 1275.633545,2076.003906 
	C1270.501709,2076.005859 1265.369751,2076.058105 1259.873291,2075.358398 
	C1265.843018,2069.294678 1267.787842,2062.301025 1267.753540,2054.273193 
	C1267.650269,2030.130981 1267.774292,2005.987671 1267.998657,1980.924072 
z"/>
<path fill="#15B252" opacity="1.000000" stroke="none" 
	d="
M1167.557861,1991.073364 
	C1186.228271,1990.097290 1204.873047,1990.050415 1224.408447,1990.001343 
	C1225.450317,2011.066772 1225.665649,2032.134399 1225.713379,2053.202148 
	C1225.727783,2059.574951 1226.183228,2065.720215 1230.533936,2071.627441 
	C1228.680908,2073.487061 1226.549683,2075.789062 1224.401489,2075.804688 
	C1196.765869,2076.007080 1169.127686,2075.893799 1141.490356,2075.795410 
	C1140.578613,2075.792236 1139.669312,2075.104248 1138.227539,2074.033203 
	C1162.709595,2058.487793 1169.363892,2034.895142 1168.741455,2007.915161 
	C1168.619019,2002.604370 1167.949219,1997.306396 1167.557861,1991.073364 
z"/>
<path fill="#15B252" opacity="1.000000" stroke="none" 
	d="
M853.777466,2073.310547 
	C858.323242,2066.634033 859.869629,2059.822021 859.811340,2052.157471 
	C859.595947,2023.848389 859.733093,1995.536499 859.737549,1967.225708 
	C859.738098,1963.632446 859.737610,1960.039307 859.737610,1955.781494 
	C874.840393,1955.781494 888.961243,1955.781494 904.443604,1955.781494 
	C904.443604,1959.475952 904.443054,1963.011841 904.443665,1966.547729 
	C904.448547,1994.858521 904.499268,2023.169556 904.427185,2051.480225 
	C904.408936,2058.655762 905.461487,2065.405762 910.478577,2071.726562 
	C908.653687,2073.526611 906.539673,2075.763184 904.383728,2075.804199 
	C889.166626,2076.095215 873.940552,2075.984375 858.718872,2075.840088 
	C857.227844,2075.825928 855.747192,2074.718262 853.777466,2073.310547 
z"/>
<path fill="#15B252" opacity="1.000000" stroke="none" 
	d="
M1546.002441,1962.202148 
	C1556.052856,1962.164795 1561.233643,1968.318115 1563.421509,1977.052246 
	C1564.860962,1982.798462 1565.245483,1988.912109 1565.336426,1994.872925 
	C1565.595337,2011.866089 1565.334717,2028.866699 1565.534790,2045.861328 
	C1565.642822,2055.037598 1565.671387,2064.352295 1571.985107,2072.850098 
	C1570.197021,2074.354980 1568.202271,2075.849609 1566.184448,2075.881348 
	C1552.755493,2076.091797 1539.319824,2076.098145 1525.891602,2075.864746 
	C1523.987305,2075.832031 1522.111694,2074.137207 1520.037354,2072.387207 
	C1524.155762,2065.211182 1524.670776,2058.027100 1524.664673,2050.647705 
	C1524.641968,2023.051270 1524.727051,1995.454956 1525.854492,1966.941650 
	C1531.746216,1966.005127 1536.588745,1966.301392 1541.345581,1965.793579 
	C1543.006714,1965.616333 1544.456177,1963.456543 1546.002441,1962.202148 
z"/>
<path fill="#15B252" opacity="1.000000" stroke="none" 
	d="
M1607.617554,2002.915527 
	C1625.319336,2002.166138 1642.805908,2002.312378 1660.290771,2002.568237 
	C1661.104980,2002.580078 1661.904785,2003.572998 1662.321533,2003.849976 
	C1665.275391,2006.934204 1658.213379,2013.475586 1667.227173,2013.983398 
	C1668.203369,2028.776001 1668.804688,2043.559937 1668.482422,2058.323730 
	C1668.357666,2064.040283 1669.865845,2068.368408 1673.929810,2072.906250 
	C1672.151855,2074.386230 1670.128906,2075.872314 1668.095093,2075.887451 
	C1648.643921,2076.032471 1629.191162,2075.941406 1609.738892,2075.857178 
	C1608.812866,2075.853271 1607.889160,2075.277344 1606.406372,2074.318359 
	C1610.282959,2069.285400 1611.125977,2063.735596 1609.826904,2058.125488 
	C1605.663452,2040.145630 1607.852783,2021.941406 1607.617554,2002.915527 
z"/>
<path fill="#FFFDFA" opacity="1.000000" stroke="none" 
	d="
M1150.296997,436.887787 
	C1150.430542,434.609436 1150.562988,432.504608 1151.677124,431.335052 
	C1159.253540,423.381714 1167.036865,415.625610 1175.760010,406.785828 
	C1183.432251,414.183746 1190.534790,421.478241 1197.738159,428.658203 
	C1205.292603,436.188110 1212.925171,443.644012 1220.324219,451.324188 
	C1227.472046,458.743561 1234.365967,466.407471 1242.006348,474.648804 
	C1279.764771,436.852264 1316.172974,400.407379 1352.490967,364.052765 
	C1361.875488,373.640717 1370.678101,382.634277 1379.033691,391.170959 
	C1333.681030,436.356384 1287.936035,481.932709 1241.452637,528.244751 
	C1211.876221,498.652649 1181.313232,468.073334 1150.296997,436.887787 
z"/>
<path fill="#FEFEFF" opacity="1.000000" stroke="none" 
	d="
M813.185303,1024.123169 
	C815.026367,1028.650024 816.644287,1032.623779 817.609619,1036.750244 
	C821.008850,1051.281128 825.667664,1065.716064 827.142090,1080.458130 
	C830.435181,1113.384155 829.549805,1146.285400 820.231445,1179.227905 
	C814.462769,1195.285278 808.242126,1210.343506 798.107117,1223.395630 
	C796.115906,1225.959961 793.974121,1228.407471 791.619690,1231.249268 
	C787.964722,1228.823730 785.036072,1226.694824 781.936279,1224.854004 
	C764.211548,1214.328003 746.758118,1203.280640 728.554932,1193.653931 
	C720.198303,1189.234497 710.519409,1186.628540 701.127991,1185.002075 
	C684.100159,1182.052979 669.103577,1198.938477 673.665649,1214.767700 
	C675.250671,1220.267456 678.675049,1224.151611 683.457153,1226.838501 
	C693.608032,1232.542114 703.917847,1237.962402 714.079651,1243.647095 
	C724.478699,1249.464722 734.778503,1255.459839 746.677368,1262.266968 
	C734.634033,1268.663208 723.478394,1270.930176 712.158203,1271.962158 
	C654.237915,1277.243042 605.320374,1245.960571 584.507751,1190.145142 
	C581.110535,1181.034302 576.891296,1172.084717 575.527588,1162.284302 
	C575.037537,1158.761963 574.712524,1155.216797 574.058716,1150.843750 
	C573.204529,1132.135864 571.862305,1114.252808 572.188171,1096.400269 
	C572.607971,1073.399658 576.599304,1050.771606 585.809631,1029.569214 
	C590.926270,1017.790771 597.897095,1006.817688 604.243042,994.813965 
	C605.206360,993.512573 606.098083,992.987732 606.691772,992.229492 
	C655.268921,930.190735 772.607239,934.044189 811.393982,1020.927307 
	C811.800903,1021.838745 812.239197,1022.736145 813.185303,1024.123169 
z"/>
<path fill="#1AB958" opacity="1.000000" stroke="none" 
	d="
M1565.197510,1882.125000 
	C1564.841431,1890.022217 1565.061768,1897.069946 1563.998047,1903.918335 
	C1562.118652,1916.018921 1555.295532,1921.766235 1543.011475,1922.377197 
	C1537.413940,1922.655762 1531.791138,1922.424561 1526.340576,1922.424561 
	C1524.255127,1915.075684 1523.764282,1859.923950 1525.633423,1847.112183 
	C1534.259766,1845.587402 1543.024414,1845.379517 1551.709839,1847.858765 
	C1558.909912,1849.913940 1562.652222,1855.358765 1563.741577,1862.340942 
	C1564.709839,1868.547119 1564.747314,1874.898438 1565.197510,1882.125000 
z"/>
<path fill="#1AB958" opacity="1.000000" stroke="none" 
	d="
M1545.278687,1961.863525 
	C1544.456177,1963.456543 1543.006714,1965.616333 1541.345581,1965.793579 
	C1536.588745,1966.301392 1531.746216,1966.005127 1526.117310,1966.046387 
	C1523.902222,1962.545654 1525.731812,1960.982788 1528.886597,1960.966553 
	C1534.108276,1960.939697 1539.332153,1961.317627 1545.278687,1961.863525 
z"/>
<path fill="#1AB958" opacity="1.000000" stroke="none" 
	d="
M1412.523682,1991.996948 
	C1412.400269,2002.323242 1412.836426,2011.699463 1412.025757,2020.966553 
	C1410.712402,2035.982178 1400.293701,2043.163696 1385.544434,2040.442383 
	C1376.822632,2038.833130 1372.199707,2033.352783 1370.303467,2025.304565 
	C1369.319458,2021.127930 1368.918335,2016.723877 1368.910522,2012.421265 
	C1368.826172,1965.432251 1368.837769,1918.442871 1368.938843,1871.453857 
	C1368.947998,1867.150269 1369.347534,1862.758667 1370.272949,1858.563843 
	C1372.543579,1848.271362 1379.510254,1843.116577 1390.540161,1843.011963 
	C1401.615356,1842.906860 1408.767822,1847.806030 1411.076416,1858.150757 
	C1412.294556,1863.609619 1412.429199,1869.388306 1412.446045,1875.024414 
	C1412.561768,1913.682007 1412.516846,1952.339966 1412.523682,1991.996948 
z"/>
<path fill="#17BD57" opacity="1.000000" stroke="none" 
	d="
M1141.784668,1884.892212 
	C1139.288330,1886.229370 1136.321411,1887.768066 1133.302734,1887.877319 
	C1124.036255,1888.212646 1114.733276,1887.679321 1105.479492,1888.157837 
	C1101.756958,1888.350342 1098.125244,1890.295410 1094.017578,1892.163574 
	C1086.341675,1881.707153 1084.661865,1869.631348 1088.110840,1856.881714 
	C1090.596924,1847.691406 1096.351196,1843.539307 1106.301514,1843.216675 
	C1116.800537,1842.876221 1123.590454,1846.854004 1126.531006,1855.638184 
	C1127.664429,1859.023560 1127.999756,1862.719482 1128.371460,1866.307861 
	C1129.255859,1874.845337 1132.530762,1881.566650 1141.784668,1884.892212 
z"/>
</svg>